<?xml version="1.0" encoding="UTF-8" standalone="no"?>
<svg
   xmlns:dc="http://purl.org/dc/elements/1.1/"
   xmlns:cc="http://creativecommons.org/ns#"
   xmlns:rdf="http://www.w3.org/1999/02/22-rdf-syntax-ns#"
   xmlns:svg="http://www.w3.org/2000/svg"
   xmlns="http://www.w3.org/2000/svg"
   xmlns:sodipodi="http://sodipodi.sourceforge.net/DTD/sodipodi-0.dtd"
   xmlns:inkscape="http://www.inkscape.org/namespaces/inkscape"
   version="1.1"
   id="svg2"
   xml:space="preserve"
   width="5333.3335"
   height="5333.3335"
   viewBox="0 0 5333.3335 5333.3335"
   sodipodi:docname="4900_9_03.eps"><metadata
     id="metadata8"><rdf:RDF><cc:Work
         rdf:about=""><dc:format>image/svg+xml</dc:format><dc:type
           rdf:resource="http://purl.org/dc/dcmitype/StillImage" /></cc:Work></rdf:RDF></metadata><defs
     id="defs6" /><sodipodi:namedview
     pagecolor="#ffffff"
     bordercolor="#666666"
     borderopacity="1"
     objecttolerance="10"
     gridtolerance="10"
     guidetolerance="10"
     inkscape:pageopacity="0"
     inkscape:pageshadow="2"
     inkscape:window-width="640"
     inkscape:window-height="480"
     id="namedview4" /><g
     id="g10"
     inkscape:groupmode="layer"
     inkscape:label="ink_ext_XXXXXX"
     transform="matrix(1.3333333,0,0,-1.3333333,0,5333.3333)"><g
       id="g12"
       transform="scale(0.1)"><path
         d="m 8749.75,21554.6 c 6529.85,5875.3 16363.75,6126.4 23184.85,592 6214.3,-11003 -20609.8,-16746.7 -24646.97,-6828.8 -858.09,2108.2 -61.29,4545.6 1462.12,6236.8"
         style="fill:#e2962d;fill-opacity:1;fill-rule:evenodd;stroke:none"
         id="path16" /><path
         d="m 8889.26,21415.1 c -1618.46,-1801.6 -2175.49,-4164.7 -1419.1,-6023 1116.95,-2744 4131.44,-4482.6 8488.14,-4895.6 2961.4,-280.7 6330,120 9241.2,1099.4 3052.5,1027 5384.8,2596.1 6567.3,4418.4 1201.9,1852.1 1206.6,3871.6 14.5,6002.9 -6783.9,5481.5 -16403.1,5230.2 -22892.04,-602.1 M 17861.1,10014.9 c -659.4,0 -1308.7,29.5 -1940,89.3 -2111.4,200.1 -3934.7,711.8 -5419.3,1520.7 -1640.23,893.7 -2783,2111.1 -3396.67,3618.7 -420.99,1034.3 -479.83,2209.5 -170.17,3398.7 285.64,1097 862.6,2149.6 1668.41,3044.2 4.58,5.1 9.47,10 14.6,14.6 3192.93,2872.9 7316.13,4515.5 11609.93,4625.1 4295,109.6 8495.5,-1320.4 11830.8,-4026.6 19.2,-15.6 35.3,-34.6 47.5,-56.1 1270.2,-2249.1 1267.1,-4477.3 -8.8,-6443.8 -1230.7,-1896.5 -3635.8,-3522.1 -6772.2,-4577.3 -2341.5,-787.8 -4974.4,-1207.5 -7464.1,-1207.5"
         style="fill:#650001;fill-opacity:1;fill-rule:nonzero;stroke:none"
         id="path18" /><path
         d="m 14848.6,25578.8 c 4282.1,1490.9 8932.3,1549.6 13216.7,65 2070.9,-479.5 3663.6,-2136.1 4061.2,-4224.4 397.5,-2088 -437.9,-4270.2 -2225,-5420.9 -152.1,-97.8 -332.3,-0.9 -464.6,99.9 -29.2,-495.1 -309.3,-882.3 -840.4,-1161.1 C 23060,11446.5 16084.7,10896 10191.3,13743 c -208.89,100.8 -186.4,424.7 -143.7,652.9 -740.69,-87.5 -1747.11,374.4 -2140.38,1484.1 -1287.06,3631.5 1147.34,7430.9 4828.28,8570.2 248.5,77 486.6,74 708.2,11.5 172.6,518.4 652.7,855 1404.9,1117.1"
         style="fill:#ff8906;fill-opacity:1;fill-rule:evenodd;stroke:none"
         id="path20" /><path
         d="m 10047.6,14592.9 c 54.2,0 106.4,-22.3 143.9,-62.4 42.8,-45.8 61.3,-109.2 49.8,-170.8 -50.1,-267.4 -18.2,-413.3 35.7,-439.3 5705.6,-2756.3 12684.9,-2302.9 18214.5,1183.6 4.3,2.7 8.8,5.3 13.4,7.7 469.7,246.7 710.2,573.2 735.3,998.3 4.2,72.6 48.3,137 114.4,167.4 66.2,30.4 143.6,21.8 201.6,-22.3 40.9,-31.1 178.5,-129.8 238.7,-90.9 1668.4,1074.3 2527.7,3171.5 2138.1,5218.4 -382.8,2010.3 -1918.4,3607.6 -3912.2,4069.2 -6.7,1.6 -13.4,3.6 -20,5.8 -4169.7,1444.8 -8817.5,1421.7 -13087.4,-64.9 h 0.1 c -744.9,-259.5 -1140.6,-565.9 -1282.9,-993.3 -33.3,-99.9 -139.1,-155.9 -240.5,-127.4 -195.7,55.3 -396.4,51.9 -596.2,-10 -1915,-592.7 -3509.82,-1922.5 -4375.73,-3648.5 -748.1,-1491 -863.58,-3148.7 -325.2,-4667.6 349.56,-986.6 1255.57,-1433.8 1931.53,-1354.3 7.7,0.9 15.4,1.3 23.1,1.3 m 8184.8,-2871 c -2827.3,0 -5612.7,629.1 -8126.7,1843.6 -145.69,70.4 -299.26,235.9 -281.44,623.1 -799.85,16.4 -1720.4,546.6 -2102.78,1625.6 -574.51,1621.1 -452.19,3388.3 344.44,4976 913.77,1821.4 2594.48,3224 4611.28,3848.2 215.3,66.7 431.8,83.7 646,50.8 220.3,462.5 690,807.1 1460.6,1075.6 v 0 c 2164.4,753.6 4408.8,1143.7 6670.9,1159.3 2282.9,16.1 4527.2,-351.1 6665.3,-1090.7 2140.7,-499.9 3788.8,-2217 4200.1,-4377.1 204.3,-1073.5 99.2,-2170.5 -304.1,-3172.4 -411.7,-1022.8 -1106,-1870.4 -2007.9,-2451.1 -94.3,-60.7 -234.3,-104.3 -420.6,-41.5 -110.9,-425.9 -410,-769.7 -892.4,-1024.8 -2763.1,-1740.7 -5928.3,-2777.9 -9153.8,-2999.6 -436.7,-30 -873.3,-45 -1308.9,-45"
         style="fill:#650001;fill-opacity:1;fill-rule:nonzero;stroke:none"
         id="path22" /><path
         d="m 9927.72,16348.2 c -1654.59,3110.6 -377.75,5635.9 3830.38,7576.9 2.4,-9.4 4.8,-18.8 7.1,-28.3 -53.3,-30.8 -106.8,-62.3 -159.8,-94.1 -2311.7,-1385.3 -3674.35,-2949.4 -3940.6,-4523.1 -158.45,-936.2 63.24,-1839.7 659.2,-2691.3 -67.8,-71.4 -136.1,-142.8 -205.8,-214.8 -2,-0.1 -3.9,-0.3 -5.9,-0.4 -64.1,-4.9 -125.38,-13.2 -184.29,-24.8 h 0.01 c -0.1,0 -0.19,0 -0.3,-0.1"
         style="fill:#ffc483;fill-opacity:1;fill-rule:nonzero;stroke:none"
         id="path24" /><path
         d="m 18887.4,13051 c -390.9,0 -692.4,68.6 -695.9,164.8 -2.5,64.6 129.3,126.7 333.7,169.3 -120.6,-2.8 -241.4,-4.2 -362,-4.2 -2569.1,0 -5151,638.5 -7498.2,1939 75.9,46.7 152.1,92.9 228.4,138.4 67.6,14.9 136.7,22.3 205.8,22.3 122.3,0 244.7,-23.1 358.6,-68.7 2210.7,-1073.5 4586.9,-1602.6 6948.6,-1602.5 3207.8,0.2 6387.2,977.2 9079,2894.1 l 20.5,14.6 c 152.5,108.9 273.1,194.8 423.3,216.1 17.2,2.5 33.6,7.1 48.9,13.6 16.8,-6.4 33.8,-13 50.6,-19.4 -2506.8,-2072 -5531.2,-3251.4 -8632.5,-3498.4 253,-23.6 425.8,-80.4 428.6,-153.2 3.9,-106.6 -358.6,-206.7 -809.6,-223.4 -43.4,-1.6 -86.2,-2.4 -127.8,-2.4"
         style="fill:#ffc483;fill-opacity:1;fill-rule:nonzero;stroke:none"
         id="path26" /><path
         d="m 29061.5,17728 c -0.3,0.1 -0.6,0.2 -0.8,0.3 -189.9,82.4 -373.3,154.4 -550.2,216.2 929,1003.6 1290.2,2366.1 967.9,3713.4 -342.1,1429.9 -1387.8,2519.1 -2800.6,2919.6 -31.6,22.1 -72.2,58.1 -97.2,123.5 -1.8,5.9 -3.8,11.8 -6.1,17.5 -1.9,6 -3.7,12.2 -5.3,18.6 92,43.4 183.4,86.6 275.1,130.1 1378.7,-412.6 2484.4,-1462.9 2961.8,-2833.6 511.2,-1467.6 229.6,-3094.8 -744.7,-4305.7"
         style="fill:#ffc483;fill-opacity:1;fill-rule:nonzero;stroke:none"
         id="path28" /><path
         d="m 18213.5,12131 c -2736.7,0 -5457.4,591.8 -7936.5,1789.4 -53.9,26 -85.8,171.9 -35.7,439.3 11.5,61.6 -7,125 -49.8,170.8 -37.5,40.1 -89.7,62.4 -143.9,62.4 -7.7,0 -15.4,-0.4 -23.1,-1.3 -51.03,-6 -103.21,-9 -156.48,-9 -652.89,0 -1451.86,451.2 -1775.05,1363.3 -538.38,1518.9 -422.9,3176.6 325.2,4667.6 484.01,964.8 1195.81,1805.8 2063.93,2463.4 -643.35,-561.2 -1160.4,-1267.3 -1500.98,-2074.6 -687.86,-1631 -576.87,-3489.2 300.13,-5026.5 159.33,194.8 374.83,318.9 646.47,372.4 19.31,-36.3 39.17,-72.9 59.28,-109.4 v 0 c 44.1,45 87.7,89.8 131,134.6 l 0.2,0.1 v 0 0 c 46.1,3.4 93.7,5.2 142.5,5.2 68.9,0 140.5,-3.4 214.8,-10.2 7,-3.8 13.9,-7.6 20.6,-11.5 30.8,-39 62.5,-78 94.9,-116.8 3.8,-4.6 7.8,-9 12,-13.2 75,-74.8 159.6,-208.7 30.4,-506.5 -30,-69 -18.1,-149 30.6,-206.2 21.9,-25.7 49.5,-44.8 79.9,-56.4 -44.2,-87.3 -102.2,-179.2 -174.2,-275.7 -197.8,-430.3 -212.9,-827.5 94.2,-958.6 2313.6,-987.7 4773.4,-1458.5 7240.4,-1458.5 2714.3,0 5437.4,569.6 7986.9,1647.1 1917,810.2 2645.2,1608.4 2127.8,2533.9 74,2 143.8,45.8 175.4,118.2 43,98.4 -0.9,212.8 -97.9,257.6 11.6,161.4 62.2,281.2 152.9,363.7 22.2,20.2 44.2,40.6 65.9,61.2 125.2,21 243.6,31.5 355.3,31.5 140.8,0 270.8,-16.7 390.1,-50 0.2,-0.1 0.4,-0.3 0.7,-0.4 v 0 c 226.4,-63.3 413.7,-186.9 562.2,-370.6 1034.4,1083.8 1573.7,2547.6 1489.8,4043.4 -68.8,1227.1 -552,2386.1 -1358,3293.7 1116.4,-757.5 1916,-1938.2 2177.6,-3311.8 389.6,-2046.9 -469.7,-4144.1 -2138.1,-5218.4 -9.7,-6.2 -21.4,-8.9 -34.3,-8.9 -67.6,0 -170.1,73.7 -204.4,99.8 -34.9,26.6 -77,40.3 -119.4,40.3 -27.9,0 -55.9,-5.9 -82.2,-18 -66.1,-30.4 -110.2,-94.8 -114.4,-167.4 -25.1,-425.1 -265.6,-751.6 -735.3,-998.3 -4.6,-2.4 -9.1,-5 -13.4,-7.7 -3127,-1971.6 -6716.4,-2973 -10278,-2973"
         style="fill:#d06004;fill-opacity:1;fill-rule:nonzero;stroke:none"
         id="path30" /><path
         d="m 18222.5,11918.7 c -2743.9,-0.2 -5487.7,595.7 -8031.2,1824.3 -208.89,100.8 -186.6,424.7 -143.7,652.9 -58.56,-6.9 -118.86,-10.4 -180.29,-10.4 -715.76,0 -1597.9,472.5 -1959.97,1494.5 -1256.38,3544.7 1033.25,7248.7 4566.56,8483.4 105.6,-20.7 211.1,-43.3 316.5,-67.9 -865,-224.6 -1652.3,-646.3 -2308.3,-1218.6 -868.12,-657.6 -1579.92,-1498.6 -2063.93,-2463.4 -748.1,-1491 -863.58,-3148.7 -325.2,-4667.6 323.19,-912.1 1122.16,-1363.3 1775.05,-1363.3 53.27,0 105.45,3 156.48,9 7.7,0.9 15.4,1.3 23.1,1.3 54.2,0 106.4,-22.3 143.9,-62.4 42.8,-45.8 61.3,-109.2 49.8,-170.8 -50.1,-267.4 -18.2,-413.3 35.7,-439.3 2479.1,-1197.6 5199.8,-1789.4 7936.5,-1789.4 3561.6,0 7151,1001.4 10278,2973 4.3,2.7 8.8,5.3 13.4,7.7 469.7,246.7 710.2,573.2 735.3,998.3 4.2,72.6 48.3,137 114.4,167.4 26.3,12.1 54.3,18 82.2,18 42.4,0 84.5,-13.7 119.4,-40.3 34.3,-26.1 136.8,-99.8 204.4,-99.8 12.9,0 24.6,2.7 34.3,8.9 1668.4,1074.3 2527.7,3171.5 2138.1,5218.4 -261.6,1373.6 -1061.2,2554.3 -2177.6,3311.8 -176.3,198.4 -368,384.9 -574.2,557.4 1513.3,-727.8 2622.7,-2138 2945.3,-3832.4 397.5,-2088.2 -437.9,-4270.2 -2225.1,-5420.9 -44.6,-28.7 -91.6,-40.6 -139.1,-40.6 -114.5,0 -231.9,69.2 -325.3,140.5 -29.3,-495.1 -309.4,-882.3 -840.5,-1161.1 -3147,-1984.3 -6760.1,-3018.4 -10374,-3018.6"
         style="fill:#650001;fill-opacity:1;fill-rule:nonzero;stroke:none"
         id="path32" /><path
         d="m 9987,16238.8 c -20.11,36.5 -39.97,73.1 -59.28,109.4 0.11,0.1 0.2,0.1 0.3,0.1 19.47,-36.4 38.82,-72.9 58.98,-109.5 m 0,0 131,134.6 c -43.3,-44.8 -86.9,-89.6 -131,-134.6 m 125.3,134.3 c 2,0.1 3.9,0.3 5.9,0.4 v 0 c -2,-0.1 -3.9,-0.3 -5.9,-0.4"
         style="fill:#d0895c;fill-opacity:1;fill-rule:nonzero;stroke:none"
         id="path34" /><path
         d="m 29061.4,17727.9 c -0.3,0.1 -0.5,0.3 -0.7,0.4 0.2,-0.1 0.5,-0.2 0.8,-0.3 -0.1,-0.1 -0.1,-0.1 -0.1,-0.1"
         style="fill:#d0895c;fill-opacity:1;fill-rule:nonzero;stroke:none"
         id="path36" /><path
         d="m 9928.02,16348.3 h -0.01 c 58.91,11.6 120.19,19.9 184.29,24.8 -64,-5 -125.47,-13.2 -184.28,-24.8"
         style="fill:#d0895c;fill-opacity:1;fill-rule:nonzero;stroke:none"
         id="path38" /><path
         d="m 10118,16373.4 0.2,0.1 v 0 l -0.2,-0.1"
         style="fill:#b04303;fill-opacity:1;fill-rule:nonzero;stroke:none"
         id="path40" /><path
         d="m 9987,16238.8 v 0 c -20.16,36.6 -39.51,73.1 -58.98,109.5 58.81,11.6 120.28,19.8 184.28,24.8 2,0.1 3.9,0.3 5.9,0.4 l -0.2,-0.1 -131,-134.6 v 0"
         style="fill:#b06041;fill-opacity:1;fill-rule:nonzero;stroke:none"
         id="path42" /><path
         d="m 24590.5,25226.6 c 960.7,-33 1583,-14.9 1866.7,54.3 -164.6,-428 -118.6,-723 138.3,-885 2925.8,-806.2 3765.4,-4521.5 1521.2,-6564.6 -194.9,-177.3 -235.2,-441 -215.3,-702 -206,-29.3 -360.4,-144.3 -530.3,-265.3 -4633.7,-3299.9 -10716.9,-3758.8 -15833.3,-1272 -229.8,93.8 -483.4,111.2 -723.8,50 131.9,303.6 108,545 -71.8,724.4 -1829.69,2191.6 -1015.24,4882.3 2964.5,7267.3 3221.4,1930.4 7178.5,2206.2 10883.8,1592.9"
         style="fill:#ffbd02;fill-opacity:1;fill-rule:evenodd;stroke:none"
         id="path44" /><path
         d="m 11098.8,15874.5 c 175.4,0 350.7,-33.7 513.4,-100 4,-1.6 7.9,-3.3 11.7,-5.2 5085,-2471.7 11075.2,-1990.7 15632.9,1255.2 l 20.3,14.5 c 129.3,92.2 261.8,186.8 423.2,243.1 7.6,296.8 102.6,530.1 283.8,694.9 1012.8,922 1428.1,2263.8 1111,3589.3 -310.6,1298.1 -1264.6,2284.9 -2552,2639.6 -18.6,5.2 -36.4,13 -52.7,23.3 -197,124.3 -389.2,362.4 -307,811.9 -351.6,-32.4 -880.2,-36.1 -1599.7,-11.4 -8.5,0.3 -17,1.1 -25.4,2.5 -2907.8,481.4 -7133.1,600.1 -10750.4,-1567.5 -2209.8,-1324.3 -3508.1,-2794.2 -3754.6,-4250.9 -159.65,-943.8 121.2,-1857.1 834.9,-2714.8 124.3,-127 239.3,-328.6 197.9,-624.6 4.2,0 8.5,0.1 12.7,0.1 m 7307.6,-2065.1 c -2361.7,-0.1 -4737.9,529 -6948.6,1602.5 -188,75.2 -399.1,89.2 -595.1,39.1 -72.9,-18.6 -150,6 -198.7,63.3 -48.7,57.2 -60.6,137.2 -30.6,206.2 129.2,297.8 44.6,431.7 -30.4,506.5 -4.2,4.2 -8.2,8.6 -12,13.2 -794.81,951.9 -1106.43,1974.5 -926.2,3039.4 266.25,1573.7 1628.9,3137.8 3940.6,4523.1 3714.6,2225.9 8032.2,2110.7 11004.6,1620.4 1159.2,-39.4 1619.1,5 1800.5,49.2 71.2,17.4 146.2,-6.2 194.7,-61.3 48.4,-55 62.2,-132.4 35.9,-200.9 -170.4,-442.9 -40.2,-578.8 36.7,-632.6 1412.8,-400.5 2458.5,-1489.7 2800.6,-2919.6 351,-1467.2 -108.5,-2952.2 -1229,-3972.3 -121.3,-110.4 -170.8,-287.4 -151.5,-541.3 7.9,-103.6 -66,-195.5 -168.7,-210.1 -150.2,-21.3 -270.8,-107.2 -423.3,-216.1 l -20.5,-14.6 c -2691.8,-1916.9 -5871.2,-2893.9 -9079,-2894.1"
         style="fill:#650001;fill-opacity:1;fill-rule:nonzero;stroke:none"
         id="path46" /><path
         d="m 17731.2,14427.2 c -785.5,0 -1414.7,324.1 -1456.8,780.9 -9.6,104.2 12.2,207.3 60.6,306 64.4,-276.6 288.1,-511.3 640.5,-668.2 283.1,-126 628.8,-191.9 995.4,-191.9 94.8,0 191.2,4.4 288.2,13.4 400.7,36.8 776.2,147.6 1077.2,315.8 -269.9,-278.1 -760.7,-490.6 -1336,-543.5 -91.2,-8.4 -181.2,-12.5 -269.1,-12.5 m -2326.2,70.9 c -1065.8,211.2 -2118.2,536.3 -3138.9,976.7 2305.5,1243.6 4478.7,2492.7 6510.4,3741.5 41.8,-19.3 84.9,-35 128.7,-47.1 -1173.2,-793 -2600.1,-1664 -4280.4,-2612.9 -954.6,-559.7 -1227,-1029.5 -817.1,-1409.4 479.6,-234.8 1012.6,-451.9 1597.3,-648.8 m 7554.9,832.4 c -190,0 -411.9,119.9 -394.4,306 33.8,362.2 43,525.4 -165.7,525.4 -1.9,0 -3.8,-0.1 -5.7,-0.1 -129.7,-40 -243.3,-59.9 -335,-59.9 -172.4,0 -267.3,70.4 -246,209.5 66.2,431 464.6,735.7 896.5,797.3 51.2,7.3 102.3,10.8 153.1,10.8 377,0 732.1,-196.7 930.4,-526.3 87.1,-165.2 -24.1,-226.3 -298.5,-320.7 -164.4,-56.6 -147,-289.6 -127.3,-586.3 13.1,-195.2 -185.1,-343 -380.4,-354.9 -8.9,-0.5 -17.9,-0.8 -27,-0.8 m -11146.5,348.2 c -63.3,29.7 -126.5,59.9 -189.5,90.6 -3.8,1.9 -7.7,3.6 -11.7,5.2 -162.7,66.3 -338,100 -513.4,100 -4.2,0 -8.5,-0.1 -12.7,-0.1 41.4,296 -73.6,497.6 -197.9,624.6 -713.7,857.7 -994.55,1771 -834.9,2714.8 246.5,1456.7 1544.8,2926.6 3754.6,4250.9 36.9,22.1 73.9,44 110.9,65.6 84.7,-42.6 169.3,-85.2 254.2,-127.8 -893.4,-611.1 -1603.2,-1222.6 -2137.7,-1825 -210,-98.2 -391.9,-227.1 -525.3,-374.2 -190.2,-209.5 -266.9,-436.5 -219.7,-645.4 -737.4,-1285.8 -667.3,-2505.7 116.4,-3567.9 325.7,-401.6 723.9,-602.6 1194.4,-602.6 264.6,0 552,63.5 862.4,190.5 -542.4,-300.1 -1092.2,-599.7 -1650.1,-899.2 m 460.5,1660.1 c -190.1,0 -411.8,119.9 -394.4,305.8 33.8,362.6 43,525.6 -166.1,525.6 -1.8,0 -3.5,-0.1 -5.3,-0.1 -129.8,-40 -243.4,-59.9 -335.1,-59.9 -172.4,0 -267.2,70.3 -245.9,209.3 66.2,431.1 464.6,735.8 896.5,797.3 51.4,7.3 102.6,10.9 153.5,10.9 376.9,0 731.8,-196.8 930,-526.2 87.2,-165.2 -24.2,-226.3 -298.5,-320.7 -164.3,-56.6 -147,-289.9 -127.2,-586.3 13,-195.2 -185.2,-343 -380.5,-354.9 -8.9,-0.5 -17.9,-0.8 -27,-0.8 m 9374.5,2 c -288.6,0 -516.4,106.4 -557.5,282.9 -4,17.2 -6.1,34.6 -6.4,52.1 47.4,-25.6 100,-46.9 157.2,-63.5 98,-28.5 207,-42.7 321.1,-42.7 110.7,0 226.3,13.4 341.6,40.2 306.3,71.3 550.1,217.7 688.9,395 3.6,-9.7 6.6,-19.7 8.9,-29.9 54.3,-233.7 -239.8,-501.9 -657.1,-599.1 -102.5,-23.8 -202.8,-35 -296.7,-35 m 5155.4,1248.1 c -648.9,0 -1168.8,267.9 -1203.6,645.4 -6.9,75 5.8,149.3 35.7,221.1 90.2,-169 256.8,-311.9 488,-414.8 238.1,-106.1 528.6,-161.5 836.2,-161.5 79.5,0 160.2,3.7 241.3,11.2 395.3,36.4 761.8,158.8 1032,344.7 15.3,10.6 30.3,21.3 44.8,32.1 -134.7,-331.7 -634.5,-610.8 -1252,-667.9 -75.4,-6.9 -149.7,-10.3 -222.4,-10.3 m -11210,56.9 c -649.2,0 -1169.3,267.8 -1204.1,645.5 -9,98.2 15.6,195.1 68.2,286.9 66.3,-222.7 253.3,-410.6 538.6,-537.6 238.2,-106.1 528.7,-161.5 836.3,-161.5 79.5,0 160.2,3.7 241.3,11.2 325.1,29.9 630.7,118.1 879.3,251.9 -214.2,-247.7 -637.3,-439.9 -1137.7,-486.2 -75.2,-6.9 -149.4,-10.2 -221.9,-10.2 m 6174.3,1068.2 c -386.7,183.6 -748.2,275.3 -1084.7,275.3 -182.7,0 -358,-27 -525.9,-81.2 34.6,72 64.3,147.9 89.1,227.5 94.4,60.1 188.5,120.1 282.2,180.2 420.5,-197.5 843.1,-394.8 1267.1,-591.4 -18.5,-6.9 -27.8,-10.4 -27.8,-10.4 m -9684.1,72 c -331.7,0 -592.5,115.8 -662.5,324.8 -21.9,65.3 -23.3,134.6 -6.9,205.1 154.5,-174.9 425.5,-270.5 745.8,-270.5 189.5,0 396.4,33.5 606.6,103.8 284.7,95.3 523.8,241 694.6,409.3 -79.4,-261.5 -397.6,-534 -827.9,-678.2 -191,-63.9 -379.7,-94.3 -549.7,-94.3 m 11737,67.8 c -480.9,0 -864.1,191.7 -901.2,475.6 -5.2,40.2 -3.2,80.4 5.3,120.1 82.5,-130.1 221,-237.2 406.6,-311.7 176.4,-70.7 385.5,-107.2 606.4,-107.2 88.5,0 178.9,5.9 269.8,17.7 288.5,37.5 556.1,131.7 762.8,267.6 -153,-214.8 -493.6,-392.3 -905.8,-446.1 -83.2,-10.8 -164.9,-16 -243.9,-16 m -1506.9,65 c -467,215.7 -931.5,431.9 -1394.3,648.8 427.9,276.9 848.6,553.6 1262.2,830.2 0.9,-3.4 1.7,-6.8 2.6,-10.2 -857.4,-604.2 -807.7,-1091.2 149.3,-1461.4 -6.7,-2.5 -13.3,-5 -19.8,-7.4 m -1814.9,846.3 c -53,25 -105.7,49.8 -158.7,74.8 -2.3,236.2 -32.3,493.5 -90.1,771.7 103.6,-226.8 280.5,-340.2 530.3,-340.2 315.1,0 746.3,180.2 1293.8,540.7 0,0 0.9,-3.4 2.7,-10.2 -514.7,-345.3 -1040.8,-691 -1578,-1036.8 m 6556.5,92.2 c -195.2,0 -356.4,55.7 -436.5,158.1 81.2,-22.3 171.3,-33.8 267.3,-33.8 143.3,0 300,25.7 460.7,79.4 341.6,114.5 592.2,319.3 694.6,542.4 2.8,-6.4 5.3,-13 7.5,-19.7 76.1,-227.5 -191.4,-522.3 -597.7,-658.4 -137.6,-46.1 -273.4,-68 -395.9,-68 m -5792.3,795.4 c -382.4,0 -772.2,135.3 -1072.5,282.9 0.2,21.4 1,42.7 2.2,63.9 304.1,113.8 605.8,229.6 905.9,347.4 575.3,131.2 1163.7,250.4 1608.9,439.1 -137.5,-472.8 -486.5,-852.5 -942.1,-1040.1 -160.1,-65.9 -330.5,-93.2 -502.4,-93.2 m -6712.6,2001 c -72.1,36.2 -144.2,72.4 -216.1,108.5 516.9,274.9 1044.1,506.2 1576.2,699.4 -490,-268.5 -943.1,-538.1 -1360.1,-807.9"
         style="fill:#d08402;fill-opacity:1;fill-rule:nonzero;stroke:none"
         id="path48" /><path
         d="m 16799.3,14092.1 c -1620.4,167 -3225.5,587.4 -4753.5,1264.1 73.8,39.6 146.8,79 220.3,118.6 1020.7,-440.4 2073.1,-765.5 3138.9,-976.7 436.3,-146.9 901.3,-282.5 1394.3,-406 m -5157.9,1450.1 c -34.6,16.5 -69.1,33.1 -103.6,49.8 -139.9,57.1 -288.5,85.9 -437.6,85.9 -96,0 -192.1,-12 -286.2,-35.9 131.9,303.6 108,545 -71.8,724.4 -1829.69,2191.3 -1015.24,4882.3 2964.5,7267.3 11.8,7.1 23.7,14.2 35.6,21.2 18.5,-31.8 46.1,-58.8 81.5,-76.6 31.5,-16 63.5,-32.1 95,-48 -37,-21.6 -74,-43.5 -110.9,-65.6 -2209.8,-1324.3 -3508.1,-2794.2 -3754.6,-4250.9 -159.65,-943.8 121.2,-1857.1 834.9,-2714.8 124.3,-127 239.3,-328.6 197.9,-624.6 4.2,0 8.5,0.1 12.7,0.1 175.4,0 350.7,-33.7 513.4,-100 4,-1.6 7.9,-3.3 11.7,-5.2 63,-30.7 126.2,-60.9 189.5,-90.6 -28.8,-15.5 -57.9,-31.1 -86.7,-46.5 -38.9,-20.9 -68,-52.9 -85.3,-90 m 2693.3,8220 c -71.7,36 -143.1,72 -214.6,108 885,483 1820.4,848 2786.9,1110.4 -347.6,-172.4 -679.6,-345.5 -996.1,-519 -532.1,-193.2 -1059.3,-424.5 -1576.2,-699.4"
         style="fill:#650001;fill-opacity:1;fill-rule:nonzero;stroke:none"
         id="path50" /><path
         d="m 10031.8,14100.8 c -3.3,0 -6.7,0.1 -10,0.3 -108.71,5.4 -192.41,97.9 -186.94,206.6 35.55,710.1 513.34,1336 1189.04,1557.3 103.2,33.7 214.7,-22.5 248.6,-125.9 33.8,-103.4 -22.5,-214.7 -126,-248.6 -521.6,-170.9 -890.6,-654.2 -918.1,-1202.5 -5.3,-105.3 -92.3,-187.2 -196.6,-187.2"
         style="fill:#650001;fill-opacity:1;fill-rule:nonzero;stroke:none"
         id="path52" /><path
         d="m 9580.91,14212.7 c -50.93,0 -101.81,19.5 -140.33,58.7 -587.89,596.6 -502.45,1130.2 -399.17,1395.2 173.09,444.3 632.71,771.5 1117.59,795.5 394.8,19.9 723.2,-168.4 900,-515.8 49.4,-97 10.8,-215.6 -86.2,-265 -96.8,-49.4 -215.6,-10.8 -264.9,86.2 -134.3,263.9 -361.6,309.4 -529.3,301 -329.53,-16.3 -653.36,-245.5 -770.01,-545 -120.26,-308.5 -12.15,-645.9 312.65,-975.5 76.42,-77.5 75.49,-202.3 -2.05,-278.6 -38.38,-37.9 -88.33,-56.7 -138.28,-56.7"
         style="fill:#650001;fill-opacity:1;fill-rule:nonzero;stroke:none"
         id="path54" /><path
         d="m 29392.3,15627.8 c -2.3,0 -4.6,0 -6.9,0.1 -108.7,3.7 -193.8,94.9 -190.1,203.7 11.1,325.9 -123.4,636 -368.9,850.9 -245.4,214.6 -570.9,306.5 -892.3,252.5 -107.1,-18.3 -209,54.3 -227,161.6 -18,107.3 54.3,208.9 161.6,227 438.5,74.1 882.3,-51.7 1217.1,-344.5 335,-293.1 518.5,-716.3 503.3,-1161 -3.6,-106.5 -91.1,-190.3 -196.8,-190.3"
         style="fill:#650001;fill-opacity:1;fill-rule:nonzero;stroke:none"
         id="path56" /><path
         d="m 29623.6,17160.3 c -53.3,0 -106.5,21.5 -145.3,63.9 -356.5,389.3 -934.5,495 -1405.8,257.1 -97,-49.2 -215.6,-10.1 -264.7,87.1 -49.1,97.1 -10,215.6 87.1,264.7 628.1,317.1 1398.8,176.3 1874,-342.8 73.5,-80.2 68,-204.8 -12.3,-278.3 -37.8,-34.6 -85.5,-51.7 -133,-51.7"
         style="fill:#650001;fill-opacity:1;fill-rule:nonzero;stroke:none"
         id="path58" /><path
         d="m 13706.5,23436.6 c -26.5,0 -53.4,5.4 -79.2,16.7 -99.6,43.8 -144.8,160.1 -101,259.7 55.9,127.1 46.3,273.8 -25.7,392.3 -71.9,118.9 -197.5,195.2 -336,204.4 -108.6,7.3 -190.8,101.2 -183.5,209.7 7.2,108.6 100,190.8 209.7,183.5 266.7,-17.8 508.6,-164.8 646.8,-393.3 138.5,-228.1 157,-510.5 49.4,-755.2 -32.5,-73.8 -104.7,-117.8 -180.5,-117.8"
         style="fill:#650001;fill-opacity:1;fill-rule:nonzero;stroke:none"
         id="path60" /><path
         d="m 14459.7,24311.5 c -82.3,0 -159.1,52 -186.8,134.3 -70.7,210.2 -250.7,362.9 -469.8,398.5 -107.4,17.4 -180.3,118.7 -162.9,226 17.5,107.4 118.8,180.6 226.1,162.9 363.8,-59.1 662.8,-312.7 780.2,-661.8 34.7,-103.1 -20.8,-214.9 -124,-249.6 -20.8,-7 -42,-10.3 -62.8,-10.3"
         style="fill:#650001;fill-opacity:1;fill-rule:nonzero;stroke:none"
         id="path62" /><path
         d="m 11819.9,15261.4 c -70.2,0 -138.3,37.7 -173.8,104 -51.4,95.9 -15.3,215.4 80.6,266.8 5692.8,3051.5 10586.5,6136.5 14545,9169.4 86.4,66.1 210.1,49.7 276.2,-36.6 66.3,-86.4 49.9,-210.1 -36.5,-276.3 -3975.4,-3045.7 -8887,-6142.3 -14598.6,-9203.9 -29.6,-15.8 -61.4,-23.4 -92.9,-23.4"
         style="fill:#650001;fill-opacity:1;fill-rule:nonzero;stroke:none"
         id="path64" /><path
         d="m 28013.7,16946 c -26.3,0 -53.1,5.3 -78.7,16.5 -4906.6,2141.6 -9654.3,4367.5 -14111.2,6615.8 -97.2,49 -136.3,167.5 -87.2,264.6 49,97.2 167.6,136.2 264.6,87.2 4450.5,-2245 9191.5,-4467.7 14091.4,-6606.5 99.8,-43.5 145.3,-159.6 101.8,-259.3 -32.3,-74.1 -104.7,-118.3 -180.7,-118.3"
         style="fill:#650001;fill-opacity:1;fill-rule:nonzero;stroke:none"
         id="path66" /><path
         d="m 23879.6,16618.2 c 274.3,94.4 385.6,155.5 298.4,320.7 -224.9,373.9 -651.6,576.9 -1083.5,515.5 -431.7,-61.4 -830.2,-366.3 -896.4,-797.5 -32.6,-212.6 207.3,-264.6 581,-149.4 214.5,3 205.6,-159.9 171.4,-525.3 -18.3,-194.9 226.1,-317.3 421.5,-305.2 195.2,12 393.4,159.7 380.5,354.9 -19.9,296.7 -37.2,529.7 127.1,586.3"
         style="fill:#ffd8ad;fill-opacity:1;fill-rule:evenodd;stroke:none"
         id="path68" /><path
         d="m 23943.8,16431.9 v 0 z m -1159.3,272.7 c 118.9,0 213.1,-36.8 280.1,-109.3 128.2,-138.8 108.8,-345.5 82.1,-631.5 -0.3,-2.8 -0.9,-9.4 13.1,-23.9 40.3,-41.6 128.5,-71.2 200,-66.2 64.3,4 130.4,34.6 168.7,78 29.6,33.6 27.9,58.9 27.3,67.2 l -0.6,8.8 c -22,330.2 -44.8,671.6 260.2,776.8 l 0.1,0.1 c 78,26.8 135.6,49 172.3,66.5 -189.1,285 -524.9,436.5 -865.6,388.2 -372.2,-52.9 -667.3,-302.8 -725.7,-611.5 46.7,-7.1 150.9,-5.5 324.5,48 18,5.5 36.6,8.5 55.4,8.8 2.7,0 5.4,0 8.1,0 z m 559.9,-1225.4 c -175.6,0 -355.6,71 -467.6,186.4 -90.5,93.5 -134,212.4 -122.5,335 8.3,88.7 21.1,225.2 17.1,299.6 -299.1,-81.5 -519.1,-63.5 -654.7,53.4 -93.7,80.9 -133.9,199.2 -113.3,333.2 74.9,488.5 512.2,884.4 1063.3,962.7 511.4,72.6 1014,-166.4 1280.1,-609 1.9,-3.1 3.7,-6.4 5.4,-9.6 57,-107.8 67.2,-209.5 30.5,-302.3 -61,-154.2 -223.7,-222.3 -430.6,-293.8 -25.3,-56.7 -12.4,-250.7 -3.7,-380.8 l 0.6,-9 c 8.5,-127.1 -35.9,-252.7 -124.7,-353.7 -107.3,-121.8 -271.8,-200.6 -440.3,-210.9 -13.2,-0.8 -26.3,-1.2 -39.6,-1.2"
         style="fill:#650001;fill-opacity:1;fill-rule:nonzero;stroke:none"
         id="path70" /><path
         d="m 18071.5,16703 c 906.3,83.4 1679,-260.8 1725.8,-768.7 46.8,-507.9 -650,-987.4 -1556.3,-1070.8 -906.3,-83.6 -1679.2,260.5 -1725.9,768.4 -46.9,507.9 650.1,987.4 1556.4,1071.1"
         style="fill:#eb2d04;fill-opacity:1;fill-rule:evenodd;stroke:none"
         id="path72" /><path
         d="m 18089.6,16506.8 c -405.4,-37.4 -775.4,-159.1 -1042.1,-342.6 -229.2,-157.7 -351.8,-345.1 -336.2,-514.1 15.6,-169.1 170.3,-331 424.5,-444.2 295.7,-131.7 681.9,-183.5 1087.1,-146.2 405.3,37.3 775.3,158.9 1042,342.4 229.2,157.7 351.7,345.1 336.2,514.1 -15.6,169.1 -170.3,331 -424.5,444.2 -295.7,131.7 -681.8,183.6 -1087,146.4 M 17970.9,14654 c -366.6,0 -712.3,65.9 -995.4,191.9 -394,175.4 -627.2,448.2 -656.6,768 -29.5,319.7 149.9,630.5 505.2,875 321.4,221.1 757.9,366.8 1229.3,410.2 v 0 c 471.6,43.6 927.3,-20 1283.5,-178.7 394,-175.5 627.2,-448.2 656.6,-768 29.5,-319.8 -149.9,-630.5 -505.2,-875 -321.4,-221.1 -757.9,-366.7 -1229.2,-410 -97,-9 -193.4,-13.4 -288.2,-13.4"
         style="fill:#650001;fill-opacity:1;fill-rule:nonzero;stroke:none"
         id="path74" /><path
         d="m 27043.3,20606.4 c 749,68.9 1387.4,-215.4 1426.1,-635.1 38.7,-419.7 -537.1,-815.8 -1286.1,-884.8 -748.8,-69.2 -1387.3,215.1 -1426,634.8 -38.6,419.8 537.1,815.9 1286,885.1"
         style="fill:#eb2d04;fill-opacity:1;fill-rule:evenodd;stroke:none"
         id="path76" /><path
         d="m 27061.5,20410.2 c -683.5,-63.2 -1132.5,-404.2 -1108,-670.8 11.7,-127 132.2,-250.5 330.7,-338.8 235.5,-104.9 556.7,-147.9 881,-117.9 324.5,29.9 632.4,130.8 844.9,277 178.9,123.1 274.8,266.5 263.1,393.5 -24.6,266.6 -528.2,519.8 -1211.8,457 h 0.1 m -101.4,-1531.1 c -307.6,0 -598.1,55.4 -836.2,161.5 -337.4,150.2 -537.2,385.5 -562.8,662.7 -49.3,536 593.8,1018.9 1464.1,1099.3 h 0.1 c 870.2,80.1 1590.8,-277.1 1640.3,-813.2 25.6,-277.1 -127.9,-545 -432.2,-754.4 -270.2,-185.9 -636.7,-308.3 -1032,-344.7 -81.1,-7.5 -161.8,-11.2 -241.3,-11.2"
         style="fill:#650001;fill-opacity:1;fill-rule:nonzero;stroke:none"
         id="path78" /><path
         d="m 24026.9,21439.8 c 589.5,76.8 1102.2,-129 1145.2,-459.3 42.9,-330.4 -400.2,-660.3 -989.5,-736.8 -589.5,-76.8 -1102.2,129 -1145.2,459.3 -42.9,330.2 400.2,660.3 989.5,736.8"
         style="fill:#eb2d04;fill-opacity:1;fill-rule:evenodd;stroke:none"
         id="path80" /><path
         d="m 24026.9,21439.8 h 0.5 -0.5 m 242.9,-181.1 c -71.3,0 -144.3,-4.7 -217.5,-14.3 v 0 c -248.4,-32.2 -481.6,-118.2 -639.6,-235.9 -125.3,-93.4 -190.9,-195.4 -179.9,-280.1 11,-84.7 100.5,-166.6 245.6,-224.8 182.8,-73.3 430.3,-96.9 678.7,-64.5 248.6,32.3 481.7,118.2 639.7,235.8 125.3,93.4 190.9,195.5 179.9,280.2 -11,84.7 -100.6,166.7 -245.6,224.8 -129.1,51.8 -290.2,78.8 -461.3,78.8 m -331.7,-1228.1 c -220.9,0 -430,36.5 -606.4,107.2 -285.4,114.5 -459.3,306.2 -489.7,539.8 -30.3,233.5 88.8,463.3 335.3,647 213.6,159 506.3,269.3 824.2,310.6 317.9,41.4 629.2,9.6 876.3,-89.5 285.4,-114.5 459.3,-306.2 489.7,-539.8 30.3,-233.6 -88.7,-463.4 -335.4,-647 -213.5,-159 -506.2,-269.3 -824.2,-310.6 -90.9,-11.8 -181.3,-17.7 -269.8,-17.7"
         style="fill:#650001;fill-opacity:1;fill-rule:nonzero;stroke:none"
         id="path82" /><path
         d="m 15916,20606.4 c 748.9,68.9 1387.4,-215.4 1426,-635.1 38.7,-419.7 -537.1,-815.8 -1285.9,-884.8 -748.9,-69.2 -1387.4,215.1 -1426.1,634.8 -38.7,419.8 537.2,815.9 1286,885.1"
         style="fill:#eb2d04;fill-opacity:1;fill-rule:evenodd;stroke:none"
         id="path84" /><path
         d="m 15934.1,20410.2 c -683.5,-63.2 -1132.4,-404.2 -1107.9,-670.7 11.7,-127.1 132.2,-250.6 330.6,-338.9 235.7,-104.9 557,-147.9 881.1,-117.9 324.5,29.9 632.4,130.8 844.8,277 178.9,123.1 274.8,266.5 263.1,393.5 -11.7,127 -132.2,250.5 -330.6,338.9 -235.6,104.9 -556.7,147.9 -881.2,118.1 h 0.1 m -101.3,-1531.1 c -307.6,0 -598.1,55.4 -836.3,161.5 -337.3,150.2 -537.2,385.5 -562.7,662.7 -49.4,536 593.6,1018.8 1464.1,1099.3 v 0 c 395.3,36.3 778,-17.1 1077.6,-150.5 337.4,-150.3 537.2,-385.7 562.7,-662.8 25.6,-277 -127.9,-544.9 -432.1,-754.3 -270.3,-185.9 -636.8,-308.3 -1032,-344.7 -81.1,-7.5 -161.8,-11.2 -241.3,-11.2"
         style="fill:#650001;fill-opacity:1;fill-rule:nonzero;stroke:none"
         id="path86" /><path
         d="m 12321.5,21479.9 c 563.6,188.8 1106.3,85.7 1212.1,-230.2 105.7,-315.9 -265.5,-724.9 -829.1,-913.7 -563.7,-188.5 -1106.5,-85.4 -1212.2,230.5 -105.7,315.7 265.5,724.9 829.2,913.4"
         style="fill:#eb2d04;fill-opacity:1;fill-rule:evenodd;stroke:none"
         id="path88" /><path
         d="m 12321.5,21479.9 h 0.5 -0.5 m 551.1,-102.7 c -153.3,0 -323.2,-28.7 -488.5,-84.1 h -0.1 c -237.6,-79.5 -449.8,-208.8 -582.2,-354.6 -105.1,-115.8 -149.7,-228.5 -122.6,-309.4 60.7,-181.8 485.3,-265.8 962.7,-106.2 477.1,159.8 765.7,482.5 704.8,664.2 -27.1,81 -130.7,144.2 -284.3,173.4 -58.8,11.2 -122.8,16.7 -189.8,16.7 m -712.2,-1331.8 c -421,0 -756.8,165.2 -855,458.6 -74.7,223.2 -2.1,471.6 204.6,699.3 178.9,197.2 444.9,361.8 748.9,463.5 304.1,101.8 615.6,130.6 877.1,80.8 302.1,-57.4 509.7,-212 584.5,-435.4 142.3,-425.4 -276.5,-936.3 -953.5,-1163 -210.2,-70.3 -417.1,-103.8 -606.6,-103.8"
         style="fill:#650001;fill-opacity:1;fill-rule:nonzero;stroke:none"
         id="path90" /><path
         d="m 27008.7,22072.4 c 406.1,136.1 797.3,61.6 873.5,-165.9 76.2,-227.7 -191.4,-522.6 -597.6,-658.7 -406.3,-135.8 -797.4,-61.6 -873.7,166.1 -76.2,227.8 191.4,522.4 597.8,658.5"
         style="fill:#eb2d04;fill-opacity:1;fill-rule:evenodd;stroke:none"
         id="path92" /><path
         d="m 27008.6,22072.4 h 0.5 -0.5 m 396.7,-129.1 c -104.2,0 -220.5,-19.7 -334.1,-57.8 -340.4,-114 -500,-329.6 -473.4,-409.1 26.6,-79.3 283.7,-155.5 624.3,-41.7 340.3,114 499.8,329.8 473.2,409.3 -12.4,37.1 -76.3,71.8 -162.9,88.2 -39.3,7.5 -82.1,11.1 -127.1,11.1 m -518.8,-961.7 c -325.9,0 -583,132.6 -662.4,369.8 -114.2,341.4 196.2,731.7 721.9,907.8 227.9,76.3 462.3,97.8 660,60.1 234.6,-44.5 403.4,-172.2 463,-350.2 114.3,-341.5 -196,-731.9 -721.8,-908.1 -160.7,-53.7 -317.4,-79.4 -460.7,-79.4"
         style="fill:#650001;fill-opacity:1;fill-rule:nonzero;stroke:none"
         id="path94" /><path
         d="m 21662.8,18648.7 c 417.3,96.9 799.7,-14 854.1,-247.9 54.4,-233.9 -239.8,-502 -657.2,-599.1 -417.3,-97.1 -799.6,14 -854,247.9 -54.3,233.7 239.8,502 657.1,599.1"
         style="fill:#eb2d04;fill-opacity:1;fill-rule:evenodd;stroke:none"
         id="path96" /><path
         d="m 21707.5,18456.8 c -349.7,-81.4 -528.9,-281 -509.9,-362.6 8.9,-38.3 69.3,-78.9 154,-103.5 127.4,-36.9 296.4,-35.9 463.4,2.9 349.8,81.4 529,281 510,362.6 -18.9,81.6 -267.8,181.8 -617.5,100.6 m -144.7,-887.2 c -114.1,0 -223.1,14.2 -321.1,42.7 -229.4,66.6 -385.4,209.7 -427.9,392.7 -81.6,350.7 264.3,709.9 804.4,835.6 h 0.1 c 540.1,125.5 1008.8,-44.4 1090.5,-395.1 81.6,-350.7 -264.3,-710 -804.4,-835.7 -115.3,-26.8 -230.9,-40.2 -341.6,-40.2"
         style="fill:#650001;fill-opacity:1;fill-rule:nonzero;stroke:none"
         id="path98" /><path
         d="m 13208.5,18629.5 c 274.3,94.3 385.6,155.5 298.4,320.7 -224.9,373.9 -651.7,576.9 -1083.4,515.5 -431.9,-61.4 -830.3,-366.4 -896.5,-797.5 -32.6,-212.9 207.2,-264.6 581,-149.4 214.4,2.7 205.5,-159.9 171.4,-525.3 -18.4,-195 226.1,-317.3 421.4,-305.2 195.3,12.1 393.5,159.7 380.4,354.9 -19.7,296.7 -37.1,529.7 127.3,586.3"
         style="fill:#ffd8ad;fill-opacity:1;fill-rule:evenodd;stroke:none"
         id="path100" /><path
         d="m 13208.5,18629.5 64.1,-186.4 0.1,0.1 -0.1,-0.1 z m -1095.6,86.4 c 119.2,0 213.6,-36.8 280.7,-109.5 127.9,-138.7 108.6,-345.3 81.9,-631.2 -0.3,-3 -0.8,-9.6 13.2,-24.1 40.3,-41.5 127.5,-71.2 199.8,-66.1 63.4,3.9 131.3,35.3 168.9,78.1 29.4,33.5 27.8,58.7 27.2,66.9 l -0.7,10.3 c -21.9,329.6 -44.5,670.5 260.5,775.5 78,26.8 135.6,49.1 172.3,66.5 -189.1,285.1 -524.6,437 -865.5,388.3 -372.3,-53 -667.5,-302.9 -725.9,-611.6 47.1,-7 151,-5.4 324.7,48.1 18,5.6 36.7,8.5 55.5,8.7 2.5,0.1 5,0.1 7.4,0.1 z m 560.4,-1225.5 c -175.7,0 -355.7,71 -467.6,186.5 -90.5,93.4 -134.1,212.4 -122.5,335 8.7,94.2 21.1,226.7 17.1,299.5 -299.1,-81.5 -519.2,-63.6 -654.7,53.4 -93.7,80.8 -133.9,199.2 -113.4,333.3 75.1,488.4 512.4,884.3 1063.6,962.7 511.1,72.4 1013.7,-166.4 1279.9,-609 1.9,-3.2 3.7,-6.4 5.5,-9.6 56.8,-107.9 67.1,-209.6 30.4,-302.3 -61.1,-154.2 -223.8,-222.4 -430.7,-293.9 -25.2,-56.6 -12.4,-249.8 -3.8,-379.5 l 0.7,-10.3 c 8.5,-126.8 -35.7,-252.3 -124.4,-353.2 -107.1,-121.9 -271.8,-200.8 -440.4,-211.3 -13.2,-0.8 -26.5,-1.3 -39.7,-1.3"
         style="fill:#650001;fill-opacity:1;fill-rule:nonzero;stroke:none"
         id="path102" /><path
         d="m 16887.5,21086.1 c 4610.1,1394.8 8755,3406.2 12674.7,5308.5 1708.7,-1551.9 4337.4,2105.6 719.2,4579.2 -2798.3,1891.2 -6297.7,2427.3 -9533.8,1460.3 -1255.9,-436.7 -1311.3,-2294.9 -431.4,-2787.2 -2342.2,-3328.2 -3714.9,-5672.1 -4118.3,-7031.3 -283.1,-978.1 -22.4,-1744.9 689.6,-1529.5"
         style="fill:#ff8906;fill-opacity:1;fill-rule:evenodd;stroke:none"
         id="path104" /><path
         d="m 20808.2,32246.6 c -501.1,-176.1 -831.5,-637.2 -884,-1234.3 -46.2,-524.6 150,-1004.2 488.2,-1193.5 48.7,-27.2 83.5,-73.8 95.9,-128.2 12.4,-54.4 1.1,-111.5 -31,-157.1 -2318.7,-3294.7 -3694.9,-5641.1 -4090.5,-6974 -181.9,-628.5 -100.9,-1071.1 60.3,-1230.3 32.7,-32.3 132.1,-130.6 383.4,-54.5 4595.2,1390.3 8687.8,3376.4 12645.7,5297.1 72.4,35.1 158.8,22.8 218.5,-31.4 338.7,-307.6 740.5,-397 1131.9,-251.6 544.1,202.2 967.8,812.7 1054.4,1519.2 131.8,1075.2 -491.8,2169.7 -1710.8,3003.1 -2758.6,1864.4 -6170.8,2387.7 -9362,1435.5 M 16887.5,21086.1 h 0.5 -0.5 m -226.1,-233 c -191.2,0 -360.3,66.3 -491.3,195.8 -307.2,303.4 -367.5,909.6 -161.5,1621.4 401.6,1352.9 1758,3682.9 4032.9,6928.3 -365.8,308.3 -562.4,851.9 -509.9,1448.2 65.7,746.5 506.8,1349.3 1151.3,1573.4 2.7,1 5.5,1.9 8.3,2.7 3306.2,987.9 6841.8,446.2 9700.5,-1485.8 1345.7,-920 2030.8,-2150.6 1880.5,-3377 -105.7,-862.1 -619.3,-1584.6 -1308.4,-1840.7 -488.5,-181.5 -1002.9,-92.7 -1430.7,242 -3935.9,-1910 -8008,-3878.1 -12588.5,-5263.9 h -0.1 c -98.1,-29.7 -193,-44.4 -283.1,-44.4"
         style="fill:#650001;fill-opacity:1;fill-rule:nonzero;stroke:none"
         id="path106" /><path
         d="m 31780.6,28837.2 c -1449,1511.3 -3253.8,2564.5 -5199.9,3103 88.9,-59.2 136.1,-115.8 124,-160 -13.7,-50.7 -103.1,-75.9 -237.4,-75.9 -142.3,0 -335.1,28.3 -541.9,84.7 -401.9,109.2 -704.8,282.7 -676.2,387.6 4.6,17 17.7,30.9 38.1,42.4 -578.5,89.9 -1164.8,135.5 -1754.1,135.5 -1089.7,0 -2189.1,-156.2 -3264.7,-477.2 143.3,167.2 325.9,294.2 539.7,369.3 1045.4,311.9 2114.3,465.5 3176.4,465.5 2180.1,0 4330.7,-647.3 6185.6,-1901 828.8,-566.6 1382.4,-1254 1610.4,-1973.9"
         style="fill:#ffc483;fill-opacity:1;fill-rule:nonzero;stroke:none"
         id="path108" /><path
         d="m 16659.8,21246.5 c -129,0 -188.8,59 -212.7,82.7 -96.4,95.1 -164.1,291.5 -164.1,568.3 0,4.8 0,9.6 0.1,14.5 2.1,-1.3 4.2,-2.6 6.4,-3.8 115.4,-68.2 254.6,-102.5 421,-102.5 293.6,0 672,106.8 1154.4,323.1 5.3,2.3 10.4,4.9 15.5,7.8 230.3,128.7 395.6,172.8 514.3,176 4.8,0.2 9.5,0.2 14.1,0.2 92,0 154.6,-25 197.4,-52.6 16.2,-10.5 29.6,-21.3 40.6,-31.3 39.1,-98.4 62.4,-212.6 70,-342.3 -619.7,-214.3 -1248.3,-418.9 -1886.3,-611.9 -67.3,-20.4 -123.6,-28.2 -170.7,-28.2 m 3645.6,1216.5 c 363.7,843.2 1591.6,1597.9 3665.2,2250 0.5,0 1,0 1.5,0 5.9,0.3 11.6,0.4 17.1,0.5 1.8,0 3.5,0 5.2,0 58.3,0 98.3,-11 119.2,-33.5 10.1,-10.9 19,-24.7 26.6,-41.4 47.1,-102.9 47.6,-311.8 24.2,-573.9 -1255.8,-560.6 -2538.7,-1100.6 -3859,-1601.7 m 5268.6,2243.7 c 36.6,288.6 209.4,555 521.7,801.8 403.9,319 1041.2,605.1 1919.5,863.6 701.6,206.4 1169.1,561.9 1250.5,951 49.4,236 -43.3,466.8 -261.3,650 v 0 c -472,396.9 -983.3,740.2 -1531.2,1028.8 -791.4,416.9 -1659.3,719.7 -2595.5,904.5 -681.3,134.6 -1388.9,201.7 -2106,201.7 -802.6,0 -1617.1,-84.1 -2418.8,-252 -270.1,188.1 -435.2,571.6 -435.4,1004 0,50.2 2.2,101 6.7,152.2 11.8,134.7 37.8,262.4 76.7,381.6 51.6,-268.4 157.7,-480.9 349,-480.9 9.9,0 20.1,0.5 30.4,1.7 599.8,67.5 1200.4,102.1 1798.1,102.1 2597.5,0 5138.9,-653.3 7298.7,-2098 l -0.1,0.2 c 124.7,-71.8 254.6,-98.3 385.1,-98.3 274.4,0.1 551.4,117 786.7,174.6 96.8,29.6 197,43.7 297.3,43.7 332.2,0 666.8,-154.2 890.8,-408.6 62.1,-272.3 77.7,-548 44.1,-822.3 -22.9,-187.2 -69.5,-367.6 -135.7,-535.5 -183.8,-465.9 -518.8,-835.2 -918.7,-983.8 -122.5,-45.5 -246.1,-68 -368.4,-68 -268.3,0 -530.8,108.3 -763.5,319.6 -37.1,33.7 -84.5,51.2 -132.5,51.2 -29.2,0 -58.6,-6.5 -86,-19.8 -1282.5,-622.4 -2578.9,-1251.5 -3902.2,-1865.1"
         style="fill:#d06004;fill-opacity:1;fill-rule:nonzero;stroke:none"
         id="path110" /><path
         d="m 16659.8,21246.5 c -129,0 -188.8,59 -212.7,82.7 -96.4,95.1 -164.1,291.5 -164.1,568.3 0,-276.8 67.7,-473.2 164.1,-568.3 23.9,-23.7 83.7,-82.7 212.7,-82.7 47.1,0 103.4,7.8 170.7,28.2 638,193 1266.6,397.6 1886.3,611.9 v 0 c -619.8,-214.3 -1248.2,-418.8 -1886.3,-611.9 -67.3,-20.4 -123.6,-28.2 -170.7,-28.2 m 3645.6,1216.5 c 0,0.1 0,0 0,0 1320.3,501.1 2603.2,1041.1 3859,1601.7 0,0 0,0 0,-0.1 -1255.7,-560.5 -2538.9,-1100.6 -3859,-1601.6 m 5268.6,2243.6 c 0,0 0,0 0,0.1 1323.3,613.6 2619.7,1242.7 3902.2,1865.1 27.4,13.3 56.8,19.8 86,19.8 48,0 95.4,-17.5 132.5,-51.2 232.7,-211.3 495.2,-319.6 763.5,-319.6 122.3,0 245.9,22.5 368.4,68 399.9,148.6 734.9,517.9 918.7,983.8 -183.8,-465.9 -518.8,-835.3 -918.8,-983.9 -122.5,-45.6 -246,-68.1 -368.4,-68.1 -268.3,0 -530.8,108.3 -763.4,319.6 -36.5,33.1 -84.5,49.8 -132.8,49.8 -30.8,0 -61.7,-6.8 -89.8,-20.4 -1281.1,-621.7 -2576.3,-1250.1 -3898.1,-1863"
         style="fill:#650001;fill-opacity:1;fill-rule:nonzero;stroke:none"
         id="path112" /><path
         d="m 20808.2,32246.6 c -501.1,-176.1 -831.5,-637.2 -884,-1234.3 -46.2,-524.6 150,-1004.2 488.2,-1193.5 48.7,-27.2 83.5,-73.8 95.9,-128.2 12.4,-54.4 1.1,-111.5 -31,-157.1 -2318.7,-3294.7 -3694.9,-5641.1 -4090.5,-6974 -181.9,-628.5 -100.9,-1071.1 60.3,-1230.3 32.7,-32.3 132.1,-130.6 383.4,-54.5 4593.7,1389.7 8685,3375 12641.6,5294.9 72.3,35.1 163,24.7 222.6,-29.4 338.7,-307.6 740.7,-396.9 1131.8,-251.5 544.2,202.2 967.9,812.8 1054.5,1519.4 131.7,1075.1 -491.8,2169.7 -1710.8,3003 -2758.6,1864.4 -6170.7,2387.7 -9362,1435.5 M 16887.5,21086.1 h 0.5 -0.5 m -226.1,-233 c -191.2,0 -360.3,66.3 -491.3,195.8 -307.2,303.4 -367.5,909.6 -161.5,1621.4 401.6,1352.9 1758,3682.9 4032.9,6928.3 -365.8,308.3 -562.4,851.9 -509.9,1448.2 65.7,746.5 506.8,1349.3 1151.3,1573.4 2.7,1 5.5,1.9 8.3,2.7 3306,987.8 6841.7,446.3 9700.5,-1485.8 1345.7,-920 2030.7,-2150.6 1880.5,-3377 -105.7,-862.1 -619.3,-1584.7 -1308.4,-1840.8 -488.2,-181.5 -1002.9,-92.8 -1430.6,241.9 -3938.8,-1911.1 -8009.7,-3878.4 -12588.6,-5263.7 h -0.1 c -98.1,-29.7 -193,-44.4 -283.1,-44.4"
         style="fill:#650001;fill-opacity:1;fill-rule:nonzero;stroke:none"
         id="path114" /><path
         d="m 16166.2,22497.8 c 741.4,2015.2 2124.9,4398.3 4150,7149.1 2983.4,645.3 6225.1,139.5 8561.5,-1824.6 499.2,-419.7 40.3,-979.2 -918,-1261.2 -1771.9,-521.4 -2541.9,-1150.5 -2588.1,-1902.2 -30.5,-497.6 -164.1,-1003 -121.3,-1559.7 2.3,-1228.2 -1210.6,-1237.8 -1026.1,-54.3 206.5,1326.9 280.2,1910.2 -290.3,1863 -2693.4,-843.5 -4006.1,-1868.3 -3937.7,-3074.9 309.9,-1195.9 133,-1995.9 -530.7,-2400.1 -229.8,-143.4 -525.1,-126.2 -736.5,42.8 -211.6,169.4 -293.1,453.7 -203.6,709.4 393.4,988.3 489.4,1707.2 287.5,2156.7 -226.5,234.3 -569.4,223.4 -1028.6,-33.2 -1030.2,-461.9 -1569.6,-398.9 -1618.1,189.2"
         style="fill:#ffbd02;fill-opacity:1;fill-rule:evenodd;stroke:none"
         id="path116" /><path
         d="m 18710.2,20116.4 c -59.9,-175.6 -3.1,-370.7 141.9,-486.8 145.8,-116.6 350.5,-128.5 509.1,-29.5 587.6,357.8 732.4,1071.7 444.3,2183.5 -3.3,12.5 -5.3,25.3 -6,38.2 -37.9,668.8 301.4,1287.9 1008.6,1840.1 671.9,524.7 1703.7,1007.2 3066.9,1434.1 13.9,4.3 28.2,7.1 42.6,8.3 209.5,17.3 372.1,-35.1 484.5,-155.9 260.7,-280.1 189.3,-825.3 16.7,-1933.8 -53.7,-344.7 31.9,-543.2 129.9,-614.1 61.9,-44.8 138.1,-47.8 214.4,-8.7 140,71.7 289.2,293.1 290.2,699.9 -27.9,375.4 18.5,720.6 63.5,1054.6 24.5,181.9 47.7,353.8 58.1,524.6 54.5,886.7 921.7,1547.3 2729.1,2079.2 617.7,181.8 935.3,459.4 976,653.8 7,33.4 28.3,135.2 -129.2,267.6 -2115.2,1778.2 -5220.7,2448.1 -8320.3,1798.3 -1966.4,-2678.5 -3333.2,-5032 -4063.4,-6996.7 23.7,-167.2 97.4,-210.6 122.7,-225.6 108.8,-64.2 409.8,-118.5 1206.2,237.4 673.9,373.6 1056.2,203.2 1258.6,-6.2 15.9,-16.4 28.7,-35.4 38.1,-56.2 226.3,-504 133.9,-1258.4 -282.5,-2306.1 m 418,-977.3 c -185.5,0 -370.6,61.4 -522.2,182.8 -276.5,221.2 -383.6,594.2 -266.5,928.3 0.9,2.6 1.9,5.2 2.9,7.7 361.3,907.7 463.6,1570.5 304.4,1971 -78,70.8 -272.6,183.5 -766.4,-92.3 -5.1,-2.9 -10.2,-5.5 -15.5,-7.8 -755.9,-338.9 -1256.4,-409.1 -1575.4,-220.6 -130.6,77.1 -292.1,239.2 -319.7,573.4 -2.4,28.6 1.5,57.3 11.4,84.3 744.4,2022.9 2149.5,4444.6 4176.3,7197.8 28.4,38.7 70.1,65.6 117,75.7 1542.8,333.8 3134.6,357 4603.2,67 1584.5,-312.8 2972.8,-963.2 4126.7,-1933.3 218,-183.2 310.7,-414 261.3,-650 -81.4,-389.1 -548.9,-744.6 -1250.5,-951 -1604.2,-472.1 -2404.6,-1036.5 -2446.9,-1725.3 -11.4,-185.1 -36.6,-372.2 -60.9,-553.1 -42.6,-315.9 -86.6,-642.6 -60.7,-979.4 0.4,-4.9 0.6,-9.8 0.6,-14.8 0.9,-500.4 -187.6,-896.1 -504.5,-1058.4 -208.8,-106.9 -442.4,-91.9 -625,40.1 -253.2,183 -358.2,545.3 -288.3,994.1 111.1,713.9 226,1452.2 84.1,1604.7 -23.6,25.4 -71.8,36.2 -143,33 -2554.2,-803.2 -3825.2,-1762.1 -3778.6,-2850.2 325.6,-1273.6 115.7,-2147.7 -624,-2598.2 -134.6,-84 -287.3,-125.5 -439.8,-125.5"
         style="fill:#650001;fill-opacity:1;fill-rule:nonzero;stroke:none"
         id="path118" /><path
         d="m 16628.1,22897.4 v 0 c 4.1,122.7 33.7,268.2 88.7,436.7 781,1779.2 2026.7,3837.8 3713.7,6135.7 5.5,1.1 10.8,2.2 16.3,3.4 -1374.1,-2314.1 -2647,-4506.2 -3818.7,-6575.8"
         style="fill:#ffde81;fill-opacity:1;fill-rule:nonzero;stroke:none"
         id="path120" /><path
         d="m 18710.2,20116.4 c -59.9,-175.6 -3.1,-370.7 141.9,-486.8 145.8,-116.6 350.4,-128.5 509,-29.5 587.7,357.8 732.5,1071.6 444.4,2183.5 -3.3,12.5 -5.3,25.3 -6,38.2 -37.9,668.8 301.4,1287.9 1008.6,1840.1 671.9,524.7 1703.8,1007.2 3066.9,1434.1 13.9,4.3 28.2,7.1 42.6,8.3 209.5,17.3 372.2,-35.2 484.5,-155.9 260.8,-280.2 189.4,-825.5 16.6,-1933.8 -53.7,-344.7 32,-543.2 130,-614.1 61.7,-44.6 138,-47.8 214.4,-8.7 140,71.7 289.2,293.2 290.2,700 -28,375.5 18.6,720.9 63.6,1055 24.5,181.8 47.7,353.5 58.1,524.2 54.3,886.5 921.5,1547.2 2728.9,2079.1 617.7,181.8 935.4,459.4 976.1,653.8 7,33.4 28.3,135.2 -129.2,267.6 -2114.9,1778 -5220.3,2447.9 -8320.3,1798.3 -1966.4,-2678.5 -3333.2,-5032 -4063.4,-6996.7 23.7,-167.2 97.4,-210.6 122.7,-225.6 108.8,-64.2 409.9,-118.3 1206.2,237.6 673.8,373.4 1056.2,203 1258.7,-6.3 15.9,-16.5 28.7,-35.5 38.1,-56.3 226.2,-504.1 133.8,-1258.4 -282.6,-2306.1 m 418,-977.3 c -185.5,0 -370.6,61.5 -522.2,182.8 -276.5,221.2 -383.6,594.2 -266.5,928.3 0.9,2.6 1.9,5.2 2.9,7.7 361.2,907.7 463.6,1570.5 304.5,1971 -78.2,70.8 -272.9,183.4 -766.6,-92.1 -5,-2.9 -10.1,-5.4 -15.4,-7.8 -755.8,-339.1 -1256.4,-409.2 -1575.4,-220.9 -130.6,77.2 -292.1,239.3 -319.7,573.5 -2.4,28.6 1.5,57.3 11.4,84.3 744.4,2022.9 2149.5,4444.6 4176.3,7197.8 28.4,38.7 70.1,65.6 117,75.7 1543.1,333.7 3134.9,356.8 4603.3,67 1584.5,-312.9 2972.8,-963.3 4126.6,-1933.3 218,-183.2 310.7,-414.1 261.3,-650 -81.5,-389.1 -549,-744.6 -1250.6,-951 -1604.2,-472.1 -2404.5,-1036.5 -2446.7,-1725.2 -11.4,-185 -36.6,-372 -60.9,-552.7 -42.6,-316.1 -86.7,-642.9 -60.8,-979.9 0.4,-4.9 0.6,-9.8 0.6,-14.8 0.9,-500.4 -187.6,-896.1 -504.5,-1058.4 -208.8,-106.9 -442.5,-91.9 -625,40.1 -253.2,183 -358.3,545.3 -288.5,994 111.3,714 226.3,1452.2 84.3,1604.8 -23.6,25.4 -71.8,36.2 -143,33 -2554.2,-803.2 -3825.2,-1762.1 -3778.6,-2850.2 325.6,-1273.7 115.7,-2147.8 -624.1,-2598.2 -134.6,-84 -287.3,-125.5 -439.7,-125.5"
         style="fill:#650001;fill-opacity:1;fill-rule:nonzero;stroke:none"
         id="path122" /><path
         d="m 19127.5,19533.2 c -89,0.1 -177.7,26.9 -253.1,79.7 736.5,182 966.5,1044.5 689.8,2587.5 -20,535.4 264.5,1064.7 853.3,1587.9 h -0.2 l 1,0.7 c 58.4,51.8 119.6,103.6 183.9,155.1 425.6,382.6 436.8,598.7 33.2,648.1 -2,0 -3.9,0 -5.9,0 -62.9,0 -124.6,3.7 -185.1,11 h -0.3 c -387.9,46.5 -718.1,237 -892.2,511.8 39.3,-31 81.1,-60.2 125.5,-87.3 226.9,-138.8 499.6,-211.6 784.2,-211.6 69,0 138.7,4.3 208.6,12.9 714.2,88.4 1246.7,613.9 1238.8,1197.6 36,-77.7 60.3,-160.7 71.1,-248.1 19.3,-155.3 -6.3,-307.7 -68.2,-449 h 0.1 -0.1 c -24.4,-55.7 -54.5,-109.5 -89.7,-161.3 -88.9,-189.5 -58.7,-284.4 90.7,-284.4 97.7,0 246.5,40.6 446.4,122 l -0.4,-0.3 c 223.2,107.7 459.6,214.9 709.5,322.2 233.2,-26.5 432.5,-126 598,-298.3 -1260.3,-410.3 -2221.1,-869.9 -2858.3,-1367.5 -671.3,-524.2 -1011.1,-1108.6 -1011.4,-1738.6 -0.1,-33.7 0.9,-67.5 2.8,-101.5 0.7,-12.9 2.7,-25.7 6,-38.2 v 0 c 201.3,-777.2 191.2,-1359.9 -33.8,-1762.5 -0.1,-0.1 -0.1,-0.3 -0.2,-0.4 -0.1,-0.1 -0.1,-0.2 -0.2,-0.3 -96.9,-173 -233.5,-312.8 -410.2,-420.3 -71.7,-44.8 -152.8,-66.8 -233.6,-66.9"
         style="fill:#d08402;fill-opacity:1;fill-rule:nonzero;stroke:none"
         id="path124" /><path
         d="m 19127.5,19533.2 c -89,0.1 -177.7,26.8 -253.1,79.7 v 0 c 75.4,-52.8 164.1,-79.6 253.1,-79.7 v 0 m 643.8,487.2 c 0.1,0.1 0.1,0.2 0.2,0.3 -0.1,-0.1 -0.1,-0.2 -0.2,-0.3 m 0.4,0.7 c 225,402.6 235.1,985.3 33.8,1762.5 201.4,-777.2 191.3,-1359.9 -33.8,-1762.5 m 25,1902.2 c 0.3,630 340.1,1214.4 1011.4,1738.6 637.2,497.6 1598,957.2 2858.3,1367.5 v 0 c -1260.2,-410.3 -2221.1,-869.9 -2858.3,-1367.5 -671.3,-524.2 -1011.1,-1108.6 -1011.4,-1738.6"
         style="fill:#650001;fill-opacity:1;fill-rule:nonzero;stroke:none"
         id="path126" /><path
         d="m 16710.4,22200.6 c -111.5,0 -179.6,22.7 -220.6,46.9 -22.9,13.5 -85.1,50.2 -114.4,180 -3.2,14.1 -6,29.2 -8.3,45.6 67.4,181.3 140.1,365.7 218.3,553.6 13.7,-43.2 27.9,-86.4 42.7,-129.3 -11,-329.4 161.5,-494.1 517.4,-494.1 156.3,0 347.9,31.7 575,95.3 -8.1,-4.4 -16.3,-8.9 -24.5,-13.5 -496.7,-222 -800.7,-284.5 -985.6,-284.5"
         style="fill:#d08402;fill-opacity:1;fill-rule:nonzero;stroke:none"
         id="path128" /><path
         d="m 24658.1,22364.6 c -31.3,0 -61.3,7.7 -89,23 -7,3.8 -13.8,8.1 -20.4,12.9 -26.7,19.4 -52.5,48.2 -74.8,86.9 268.6,90.4 389.4,335.2 362.4,734.4 47.4,1094.1 218.3,1914.9 512,2462.5 l -0.1,-0.2 0.2,0.3 c -0.1,-0.1 -0.1,-0.1 -0.1,-0.1 l 0.4,0.7 c 39.1,72.7 80.3,140.3 123.6,203.3 138,254.7 128.2,382 -29.3,382 -47.1,0 -107.3,-11.3 -180.7,-34 -173.6,-69.8 -351,-103.3 -519.8,-103.3 -212.5,0 -411.3,53.1 -571.3,153.6 79.3,-13.9 160.4,-20.8 242.3,-20.8 231.5,0 469.6,54.9 692.9,161.8 569,272.5 898.8,818.8 841.7,1320.5 24.4,-34.5 46.1,-71.4 64.8,-110.4 98.4,-205.5 97.1,-437.6 15.2,-657.6 99.6,-168.5 245.1,-252.7 436.3,-252.7 123.1,0 265.2,34.9 426.3,104.7 615.8,449.3 797.6,884.8 545.8,1306.1 -1167.3,981.4 -2777.5,1472.1 -4830.2,1472.1 -674.9,0 -1397.5,-53 -2168.1,-159.1 51.9,17.8 103.8,35 156,51.6 724.2,141 1447.6,210.1 2157.8,210.1 1384.3,0 2718.1,-262.7 3906.9,-768 765.7,-325.6 1471.5,-751.8 2091.9,-1273.4 21.3,-17.9 39.3,-35.2 54.5,-51.9 97.5,-106.8 80.7,-186.8 74.7,-215.7 -40.7,-194.4 -358.4,-472 -976.1,-653.8 -1282.3,-377.4 -2091.3,-819.5 -2472.5,-1361.2 -156.2,-221.8 -240.7,-460.4 -256.5,-718 -10.4,-170.8 -33.6,-342.7 -58.1,-524.6 -15.2,-113.2 -30.7,-227.7 -43.3,-344.2 0,-0.3 0,-0.5 -0.1,-0.7 0,-0.4 0,-0.8 -0.1,-1.2 -23.4,-216.2 -37.1,-439.5 -22.4,-674.5 0.8,-11.3 1.5,-22.6 2.4,-34 -1,-401.2 -146.2,-622.1 -284.4,-696.8 -1.9,-1.1 -3.9,-2.1 -5.8,-3.1 v 0 c -35.5,-18.1 -71,-27.2 -105,-27.2"
         style="fill:#d08402;fill-opacity:1;fill-rule:nonzero;stroke:none"
         id="path130" /><path
         d="m 24569.1,22387.6 c -7,3.8 -13.8,8.1 -20.4,12.9 -26.7,19.4 -52.6,48.2 -74.9,86.9 h 0.1 c 22.3,-38.7 48.1,-67.5 74.8,-86.9 6.6,-4.8 13.4,-9.1 20.4,-12.9 m 484.2,704.1 c -0.9,11.4 -1.6,22.7 -2.4,34 0.8,-11.3 1.5,-22.6 2.4,-33.9 0,0 0,0 0,-0.1 m 20,708.5 c 0.1,0.4 0.1,0.8 0.1,1.2 0,-0.4 0,-0.8 -0.1,-1.2 m 0.2,1.9 c 12.6,116.5 28.1,231 43.3,344.2 24.5,181.9 47.7,353.8 58.1,524.6 15.8,257.6 100.3,496.2 256.5,718 -156.2,-221.8 -240.6,-460.3 -256.4,-717.9 -10.4,-170.7 -33.6,-342.4 -58.1,-524.2 -15.3,-113.4 -30.7,-228 -43.4,-344.7 m 3731.8,3817.5 c -15.2,16.7 -33.2,34 -54.5,51.9 -620.4,521.6 -1326.2,947.8 -2091.9,1273.4 765.8,-325.6 1471.4,-751.7 2091.9,-1273.4 21.3,-17.9 39.3,-35.2 54.5,-51.9"
         style="fill:#650001;fill-opacity:1;fill-rule:nonzero;stroke:none"
         id="path132" /><path
         d="m 18300.8,22698.9 c 9.9,4 19.9,8 29.9,12 21.7,-1.1 42.7,-3 62.9,-5.8 -29.9,-0.6 -60.8,-2.6 -92.8,-6.2 m 781.1,534.1 c -97.6,0 -176.7,79 -176.7,176.6 0,97.9 79.1,176.9 176.7,176.9 97.7,0 176.8,-79 176.8,-176.9 0,-97.6 -79.1,-176.6 -176.8,-176.6 m -562.2,2015.4 c -70.6,0 -126.1,55.4 -126.1,126.2 0,70.6 55.5,126 126.1,126 70.7,0 126.1,-55.4 126.1,-126 0,-70.8 -55.4,-126.2 -126.1,-126.2 m 5768.4,176.4 c -70.7,0 -126.1,55.4 -126.1,126 0,70.8 55.4,126.2 126.1,126.2 70.6,0 126.1,-55.4 126.1,-126.2 0,-70.6 -55.5,-126 -126.1,-126 m -1634.9,1634.6 c -97.7,0 -176.8,79 -176.8,176.9 0,97.6 79.1,176.6 176.8,176.6 97.6,0 176.7,-79 176.7,-176.6 0,-97.9 -79.1,-176.9 -176.7,-176.9 m -916.3,325.6 c -74.6,0 -146.2,19.4 -207.5,59.7 1.9,0 3.7,0 5.6,0 207.8,0 426.7,102.3 580.9,293.1 86.2,106.4 143.6,229.5 167.7,356.2 42.1,-150.7 2,-336.8 -120.3,-488.2 -115.7,-143.1 -277.2,-220.8 -426.4,-220.8 m 3226.5,1481.1 c -70.6,0 -126.2,55.4 -126.2,126 0,70.6 55.6,126.2 126.2,126.2 70.6,0 126.2,-55.6 126.2,-126.2 0,-70.6 -55.6,-126 -126.2,-126 m -3975.1,235.5 c -70.6,0 -126.2,55.7 -126.2,126.3 0,70.5 55.6,126.2 126.2,126.2 70.6,0 126.1,-55.7 126.1,-126.2 0,-70.6 -55.5,-126.3 -126.1,-126.3"
         style="fill:#d08402;fill-opacity:1;fill-rule:nonzero;stroke:none"
         id="path134" /><path
         d="m 16628.1,22897.4 c -14.8,42.9 -29,86.1 -42.7,129.3 42.2,101.4 86.1,204.1 131.4,307.4 -55,-168.5 -84.6,-314 -88.7,-436.7"
         style="fill:#d09b5a;fill-opacity:1;fill-rule:nonzero;stroke:none"
         id="path136" /><path
         d="m 19127.5,19336.1 c -141.6,0 -282.6,47 -398.5,139.6 -38.3,30.8 -72.3,65.1 -101.7,102.5 87.8,4.1 170.2,15.7 247.1,34.7 75.4,-52.9 164.1,-79.6 253.1,-79.7 v 0 c 80.8,0.1 161.9,22.1 233.6,66.9 176.7,107.5 313.3,247.3 410.2,420.3 0.1,0.1 0.1,0.2 0.2,0.3 0.1,0.1 0.1,0.3 0.2,0.4 225.1,402.6 235.2,985.3 33.8,1762.5 v 0 c -3.3,12.5 -5.3,25.3 -6,38.2 -1.9,34 -2.9,67.8 -2.8,101.5 0.3,630 340.1,1214.4 1011.4,1738.6 637.2,497.6 1598.1,957.2 2858.3,1367.5 47,-48.9 91.2,-103.7 132.7,-164.3 -2602.5,-835.3 -3870.1,-1845.9 -3802.9,-3032.1 309.9,-1195.9 133.1,-1995.9 -530.8,-2400.1 -103.9,-64.8 -221.1,-96.8 -337.9,-96.8 m -500.2,242.1 c -133.8,168.8 -175.3,397.2 -101.9,606.9 41.4,104 79.5,205 114.3,303.1 l -12.4,-910 v 0 0 m -1917.8,2425.6 c -335,0 -516.1,164.7 -543.3,494 65.8,178.7 136.7,360.6 212.8,545.3 106.3,106 220,206.4 341,300.5 -1.1,-3.1 -2.1,-6.4 -3.2,-9.5 -45.3,-103.3 -89.2,-206 -131.4,-307.4 -78.2,-187.9 -150.9,-372.3 -218.3,-553.6 v 0 c 2.3,-16.4 5.1,-31.5 8.3,-45.6 29.3,-129.8 91.5,-166.5 114.4,-180 41,-24.2 109.1,-46.9 220.6,-46.9 184.9,0 488.9,62.5 985.6,284.5 8.2,4.6 16.4,9.1 24.5,13.5 172.9,48.3 366.4,115.1 580.3,200.3 32,3.6 62.9,5.6 92.8,6.2 115.3,-15.7 207,-58.2 274.9,-127.8 l -1.7,-126.2 c -76.8,39 -162.8,58.5 -258,58.5 -176.4,0 -384.6,-66.9 -624.5,-200.8 -453.3,-203.3 -811.6,-305 -1074.8,-305 m 7948.5,163.8 c -156.2,0 -303.9,94.3 -386,282.3 74.6,4.8 141.9,17.3 201.8,37.5 22.3,-38.7 48.2,-67.5 74.9,-86.9 6.6,-4.8 13.4,-9.1 20.4,-12.9 27.7,-15.3 57.7,-23 89,-23 34,0 69.5,9.1 105,27.2 v 0 c 1.9,1 3.9,2 5.8,3.1 138.2,74.7 283.4,295.6 284.4,696.8 0,0.1 0,0.1 0,0.1 -0.9,11.3 -1.6,22.6 -2.4,33.9 -14.7,235 -1,458.3 22.4,674.5 0.1,0.4 0.1,0.8 0.1,1.2 0.1,0.2 0.1,0.4 0.1,0.7 12.7,116.7 28.1,231.3 43.4,344.7 24.5,181.8 47.7,353.5 58.1,524.2 15.8,257.6 100.2,496.1 256.4,717.9 381.2,541.7 1190.2,983.8 2472.5,1361.2 617.7,181.8 935.4,459.4 976.1,653.8 6,28.9 22.8,108.9 -74.7,215.7 -15.2,16.7 -33.2,34 -54.5,51.9 -620.5,521.7 -1326.1,947.8 -2091.9,1273.4 -1188.8,505.3 -2522.6,768 -3906.9,768 -710.2,0 -1433.6,-69.1 -2157.8,-210.1 790.5,252.9 1601.8,379.3 2433.6,379.3 653.9,0 1320.6,-78.1 1999.9,-234.3 l 65.2,11.9 c 1381.5,-310 2683.7,-911.6 3784.8,-1837.4 499,-419.7 40.3,-979.2 -918.2,-1261.2 -1771.7,-521.4 -2541.7,-1150.5 -2587.8,-1902.2 -30.6,-497.6 -164.2,-1003 -121.4,-1559.7 1.2,-622.3 -309.4,-931.6 -592.3,-931.6 m -386.2,282.8 c -62.6,143.6 -87,341.8 -47.8,594.5 l 23.1,148.2 c 16.6,-229.3 25.1,-476.7 24.7,-742.7"
         style="fill:#650001;fill-opacity:1;fill-rule:nonzero;stroke:none"
         id="path138" /><path
         d="m 31263.9,28041.1 c 222.3,-156.7 218.3,-544.8 -8.8,-866.7 -227,-322.1 -591,-455.9 -813.4,-299.4 -222.1,156.7 -218.1,544.8 8.9,866.7 227.1,322.1 591.1,456.1 813.3,299.4"
         style="fill:#ff8906;fill-opacity:1;fill-rule:evenodd;stroke:none"
         id="path140" /><path
         d="m 31047.2,27909.7 c -45.9,0 -90.3,-12.7 -120.1,-23.7 -114.7,-42.2 -229.7,-136.2 -315.4,-257.9 -175.4,-248.7 -170.5,-511.6 -56.4,-592.1 114.1,-80.3 363.5,3.3 538.8,251.9 85.7,121.6 135.6,261.5 136.9,383.8 0.5,56.2 -9.2,158 -80.6,208.4 -31.2,22 -67.6,29.6 -103.2,29.6 z m -387.6,-1297.9 c -119.1,0 -233,32.9 -331.3,102.1 -316,222.9 -332.9,724.1 -38.7,1141.3 132.6,188.1 310.7,330.4 501.4,400.6 213.1,78.5 426.9,58.9 586.4,-53.7 159.7,-112.5 249.9,-307.3 247.6,-534.4 -2.1,-203.3 -76.2,-418.8 -208.8,-606.9 -202.6,-287.3 -492.5,-449 -756.6,-449"
         style="fill:#650001;fill-opacity:1;fill-rule:nonzero;stroke:none"
         id="path142" /><path
         d="m 29603.1,26785.1 c -35.5,0 -71.5,9.7 -103.9,29.9 -216.5,134.7 -436,389.6 -671.2,779.3 -56.2,93.1 -26.3,214.2 66.9,270.5 93.1,56.2 214.2,26.3 270.5,-66.9 248.5,-411.7 431.9,-579.8 542.1,-648.4 92.4,-57.5 120.6,-179.1 63.1,-271.4 -37.3,-60 -101.7,-93 -167.5,-93"
         style="fill:#650001;fill-opacity:1;fill-rule:nonzero;stroke:none"
         id="path144" /><path
         d="m 25683,27967.8 c 224.9,-469.9 -71.3,-1079.8 -661.7,-1362.5 -590.4,-282.7 -1251.3,-131 -1476.3,338.9 -225,469.6 71.3,1079.7 661.6,1362.4 590.4,282.7 1251.4,131.1 1476.4,-338.8"
         style="fill:#eb2d04;fill-opacity:1;fill-rule:evenodd;stroke:none"
         id="path146" /><path
         d="m 24813.9,28252.2 c -172.6,0 -352,-41.8 -522.2,-123.3 -245.5,-117.6 -438.8,-302 -544.4,-519.5 -98.2,-202.2 -106.9,-408.2 -24.6,-580.1 82.4,-172 248.4,-294.4 467.5,-344.7 235.5,-54.1 500.5,-19.1 746,98.4 491.4,235.4 746.7,728.7 569,1099.7 -82.3,172 -248.3,294.4 -467.5,344.7 -72.3,16.6 -147.4,24.8 -223.8,24.8 m -400.4,-1986.4 c -105.8,0 -210.3,11.5 -311.5,34.7 -338.5,77.7 -599.5,276.1 -734.7,558.6 -135.3,282.4 -126.2,610 25.5,922.5 144.4,297.3 403.2,546.8 728.7,702.7 325.6,156 682.4,201.1 1004.4,127.2 338.6,-77.7 599.5,-276.1 734.8,-558.6 271.5,-567 -66.9,-1296.1 -754.3,-1625.3 -223.3,-106.9 -461.4,-161.8 -692.9,-161.8"
         style="fill:#650001;fill-opacity:1;fill-rule:nonzero;stroke:none"
         id="path148" /><path
         d="m 21706.4,26106.1 c 63.9,-517.1 -410.8,-1001.1 -1060.4,-1081.5 -649.8,-80.5 -1228.2,273.5 -1292.1,790.3 -64,517.1 410.7,1001.2 1060.5,1081.6 649.6,80.4 1228,-273.5 1292,-790.4"
         style="fill:#eb2d04;fill-opacity:1;fill-rule:evenodd;stroke:none"
         id="path150" /><path
         d="m 20599.4,26711 c -53.1,0 -106.8,-3.3 -160.8,-10 -540.8,-67 -939.7,-453.6 -889.2,-861.9 23.4,-189.1 141.9,-357.9 333.7,-475.2 206.1,-126.2 468.4,-177.2 738.7,-143.8 540.7,66.9 939.5,453.5 889,861.8 v 0 c -23.4,189.2 -141.9,358 -333.6,475.3 -165,100.9 -365.8,153.8 -577.8,153.8 m -137.8,-1894.9 c -284.6,0 -557.3,72.8 -784.2,211.6 -296.3,181.3 -480.7,452.2 -519.1,763 -77.1,624 475.5,1207.7 1231.8,1301.4 358.2,44.2 710.8,-26.3 992.7,-198.7 296.3,-181.3 480.7,-452.3 519.1,-763.1 v 0 c 77.1,-623.9 -475.4,-1207.7 -1231.7,-1301.3 -69.9,-8.6 -139.6,-12.9 -208.6,-12.9"
         style="fill:#650001;fill-opacity:1;fill-rule:nonzero;stroke:none"
         id="path152" /><path
         d="m 24273.7,24598.6 c -51.8,0 -103.6,20.4 -142.3,60.7 -99.4,103.8 -354.3,232.8 -1004.1,258.6 -108.7,4.3 -193.4,96 -189,204.7 4.2,108.8 94.8,194.8 204.7,189.1 635.9,-25.3 1052.3,-149.4 1272.9,-379.7 75.3,-78.5 72.7,-203.3 -5.9,-278.6 -38.2,-36.6 -87.2,-54.8 -136.3,-54.8"
         style="fill:#650001;fill-opacity:1;fill-rule:nonzero;stroke:none"
         id="path154" /><path
         d="m 25461,24838.2 c -13.7,0 -27.7,1.5 -41.6,4.5 -106.4,22.9 -174.1,127.6 -151.2,234 99.2,461.2 397.3,963.6 911.5,1535.9 72.8,81 197.3,87.6 278.3,14.9 80.9,-72.7 87.6,-197.3 14.9,-278.2 -460.5,-512.6 -736.2,-968.7 -819.4,-1355.4 -19.9,-92.4 -101.6,-155.7 -192.5,-155.7"
         style="fill:#650001;fill-opacity:1;fill-rule:nonzero;stroke:none"
         id="path156" /><path
         d="m 21961.9,28538 c 183,-148 183.3,-450.8 0.8,-676.3 -182.4,-225.6 -478.5,-288.9 -661.4,-141.1 -182.9,147.8 -183.3,450.6 -0.8,676.3 182.4,225.7 478.5,288.9 661.4,141.1"
         style="fill:#eb2d04;fill-opacity:1;fill-rule:evenodd;stroke:none"
         id="path158" /><path
         d="m 21726.5,28421.3 c -90.4,0 -196.5,-53.8 -272.7,-148.2 -59.2,-73.1 -93,-161.8 -92.9,-243.3 0,-38.9 8.4,-110.9 64.2,-155.9 96.5,-77.9 272.5,-26.8 384.4,111.7 59.1,73 92.9,161.6 92.8,243.1 -0.1,38.9 -8.5,110.9 -64.3,156.1 -30.6,24.8 -69.4,36.5 -111.5,36.5 m -191.5,-976.6 c -129.6,0 -254.9,39.8 -357.5,122.6 -133.6,108 -210.5,276.3 -210.7,462 -0.2,172.8 63.9,347.3 180.5,491.5 250.3,309.8 671.3,386.2 938.4,170.5 l 0.1,-0.1 c 133.6,-108.1 210.3,-276.5 210.6,-462 0.2,-172.9 -63.9,-347.4 -180.5,-491.4 -154.2,-190.8 -373.1,-293.1 -580.9,-293.1"
         style="fill:#650001;fill-opacity:1;fill-rule:nonzero;stroke:none"
         id="path160" /><path
         d="m 18742.3,24560.6 c 158.1,-128.1 158.5,-389.9 0.8,-585.1 -157.9,-195.2 -414.1,-249.9 -572.3,-121.9 -158.2,127.9 -158.6,389.7 -0.7,584.9 157.7,195.4 414,250 572.2,122.1"
         style="fill:#99cc33;fill-opacity:1;fill-rule:evenodd;stroke:none"
         id="path162" /><path
         d="m 18538.9,24517.2 c -19.2,0 -39,-2.2 -59.4,-6.5 -82.9,-17.7 -161.7,-68.5 -221.8,-142.9 -60.2,-74.5 -93.3,-162.1 -93.2,-246.9 0.1,-75.8 27.5,-139.6 77.1,-179.7 49.7,-40.2 117.8,-53.6 192,-37.7 82.9,17.6 161.7,68.4 221.9,142.8 118.4,146.5 125.6,338 15.9,426.8 -36,29.1 -81.7,44.1 -132.5,44.1 z m -165.9,-845.6 c -101.7,0 -196.1,32.3 -273,94.5 -103.4,83.5 -160.4,209.5 -160.6,354.6 -0.2,136.2 50.6,274.2 143.2,388.6 92.4,114.4 216.7,193.2 349.9,221.6 142,30.3 277.1,0.9 380.5,-82.7 l 0.1,-0.1 c 206,-166.8 214,-500.3 17.5,-743.4 -92.5,-114.4 -216.9,-193.1 -350.1,-221.5 -36.4,-7.7 -72.4,-11.6 -107.5,-11.6"
         style="fill:#650001;fill-opacity:1;fill-rule:nonzero;stroke:none"
         id="path164" /><path
         d="m 27136.5,27600.8 c 31.8,-46.8 -16.1,-134.7 -107,-196.6 -91,-61.8 -190.3,-74.2 -222,-27.5 -31.8,46.8 16,134.7 106.9,196.6 90.9,61.8 190.3,74.2 222.1,27.5"
         style="fill:#99cc33;fill-opacity:1;fill-rule:evenodd;stroke:none"
         id="path166" /><path
         d="m 27043.5,27537.4 h 0.4 z m -168.2,-301.6 c -69.3,0 -126.8,27.4 -160.9,77.6 -70.1,102.9 -12.6,251.3 136.6,352.9 58.6,39.9 123.5,65.8 182.8,73.2 84.2,10.6 155.9,-16.9 195.7,-75.4 39.8,-58.3 39.2,-134.8 -1.6,-209.7 -28.6,-52.6 -76.6,-103.5 -135.1,-143.3 -58.5,-39.8 -123.4,-65.7 -182.6,-73.1 -12,-1.5 -23.6,-2.2 -34.9,-2.2"
         style="fill:#650001;fill-opacity:1;fill-rule:nonzero;stroke:none"
         id="path168" /><path
         d="m 23409.5,28896.6 c 31.7,-46.5 -16.2,-134.8 -107,-196.6 -91,-61.9 -190.3,-74.2 -222,-27.5 -31.8,46.7 16,134.7 106.9,196.6 90.9,61.8 190.2,74.2 222.1,27.5"
         style="fill:#99cc33;fill-opacity:1;fill-rule:evenodd;stroke:none"
         id="path170" /><path
         d="m 23148.4,28531.6 c -69.3,0 -126.9,27.4 -161,77.7 -39.7,58.2 -39.1,134.7 1.6,209.6 28.6,52.5 76.5,103.4 135,143.2 149.4,101.6 308.5,100.6 378.5,-2.2 25.9,-37.9 35,-85.9 25.8,-135 -14.7,-77.2 -75.4,-158.7 -162.4,-218 -58.6,-39.8 -123.5,-65.7 -182.7,-73.1 -11.9,-1.5 -23.5,-2.2 -34.8,-2.2"
         style="fill:#650001;fill-opacity:1;fill-rule:nonzero;stroke:none"
         id="path172" /><path
         d="m 22933.9,25998.7 c 31.8,-46.8 -16.2,-134.7 -107,-196.6 -90.8,-61.9 -190.3,-74.2 -222.1,-27.5 -31.8,46.5 16.1,134.5 107.1,196.6 90.8,61.8 190.1,74 222,27.5"
         style="fill:#99cc33;fill-opacity:1;fill-rule:evenodd;stroke:none"
         id="path174" /><path
         d="m 22868.7,25914.2 h 0.5 z m -195.8,-280.7 c -67.9,0 -125.8,25.9 -161.2,77.7 -39.7,58.3 -39.1,134.7 1.7,209.7 28.6,52.5 76.5,103.4 135,143.3 149,101.5 308.1,100.7 378.4,-2 l 0.2,-0.2 c 39.7,-58.3 39.1,-134.8 -1.8,-209.8 -28.5,-52.5 -76.5,-103.3 -134.9,-143.1 -74.1,-50.5 -150.6,-75.6 -217.4,-75.6"
         style="fill:#650001;fill-opacity:1;fill-rule:nonzero;stroke:none"
         id="path176" /><path
         d="m 20351.8,27576.7 c 31.7,-46.7 -16.1,-134.7 -107,-196.5 -90.9,-61.9 -190.2,-74.3 -222.1,-27.5 -31.8,46.7 16.1,134.7 107,196.5 91,61.9 190.3,74.3 222.1,27.5"
         style="fill:#99cc33;fill-opacity:1;fill-rule:evenodd;stroke:none"
         id="path178" /><path
         d="m 20286.6,27492.4 h 0.5 z m -195.9,-280.8 c -67.8,0 -125.8,25.9 -161.1,77.7 -39.7,58.4 -39.1,134.8 1.7,209.8 28.6,52.5 76.6,103.4 135.1,143.2 149.3,101.5 308.4,100.6 378.5,-2.2 v -0.1 c 69.9,-102.9 12.4,-251.3 -136.7,-352.9 -74.1,-50.4 -150.6,-75.5 -217.5,-75.5"
         style="fill:#650001;fill-opacity:1;fill-rule:nonzero;stroke:none"
         id="path180" /><path
         d="m 20350.3,22270.1 c 814.8,310.4 1595.6,623.8 2341.9,940.4 -137.5,-473.1 -484.9,-856.8 -942.1,-1040.3 -457.1,-183.5 -973.3,-146.9 -1399.8,99.9"
         style="fill:#eb2d04;fill-opacity:1;fill-rule:evenodd;stroke:none"
         id="path182" /><path
         d="m 20905.8,22272.8 c 255.5,-45.9 521.5,-19.8 770.9,80.3 249.1,99.9 459.2,264.9 612,474.7 -447.4,-185.4 -909.9,-371 -1382.9,-555 z m 245.3,-416.3 c -311.3,0 -620.6,81.7 -899.5,243 -65.8,38.1 -103.8,110.6 -97.7,186.4 6.1,75.7 55.2,141.3 126.2,168.3 811.9,309.3 1597.6,624.8 2335.1,937.7 70.2,29.7 151,16.4 207.8,-34 56.9,-50.5 79.6,-129.3 58.4,-202.3 -155.4,-535 -541,-960.8 -1057.9,-1168.3 -217.9,-87.4 -445.7,-130.8 -672.4,-130.8"
         style="fill:#650001;fill-opacity:1;fill-rule:nonzero;stroke:none"
         id="path184" /><path
         d="m 20460.9,25210.1 c -212.1,0 -413,52.9 -577.8,153.8 -191.8,117.3 -310.3,286.1 -333.7,475.2 -10.6,85.9 -1.3,170.8 24.9,252 4,-4.9 8.1,-9.8 12.2,-14.7 201.3,-238.3 541.6,-387.1 923.4,-387.1 60.2,0 121.6,3.7 183.5,11.3 334.9,41.6 623.3,190.4 815.5,395.5 0.7,-4.7 1.3,-9.4 1.9,-14.2 v 0 c 50.5,-408.3 -348.3,-794.9 -889,-861.8 -54.1,-6.7 -107.9,-10 -160.9,-10"
         style="fill:#c31f03;fill-opacity:1;fill-rule:nonzero;stroke:none"
         id="path186" /><path
         d="m 20462.6,25013.2 c -404.1,0 -761.8,166.7 -957.3,429.7 -33.1,44.4 -61.6,91.9 -85,141.8 -33.7,71.9 -56.4,149.1 -66.4,230.5 -11.4,92.1 -5.7,183.2 15.1,271.2 17.3,73.3 45.1,144.6 82.2,212.4 28.8,-71.2 68.1,-137.7 116.2,-198.8 2.3,-3 4.6,-6 6.9,-8.9 -26.2,-81.2 -35.5,-166.1 -24.9,-252 23.4,-189.1 141.9,-357.9 333.7,-475.2 164.8,-100.9 365.7,-153.8 577.8,-153.8 53,0 106.8,3.3 160.9,10 540.7,66.9 939.5,453.5 889,861.8 v 0 c -0.6,4.8 -1.2,9.5 -1.9,14.2 6,6.4 11.9,12.9 17.7,19.4 51,57.3 94.5,118.5 129.8,182.9 24.7,-61 41.6,-125.4 49.9,-192.5 26.2,-211 -37.6,-416.7 -166.5,-591.8 -186.6,-253.1 -509.6,-441.9 -893.8,-489.5 -62,-7.7 -123.2,-11.4 -183.4,-11.4"
         style="fill:#650001;fill-opacity:1;fill-rule:nonzero;stroke:none"
         id="path188" /><path
         d="m 24414.1,26659.8 c -76.5,0 -151.6,8.2 -223.9,24.8 -219.1,50.3 -385.1,172.7 -467.5,344.7 -55,114.9 -69.4,245 -43.5,379 50,-59.2 108.7,-110.7 174.3,-153.9 162.9,-107.4 368.2,-164.3 588.2,-164.3 197.6,0 407.2,45.9 608.5,142.3 211.8,101.4 385.8,245 511.4,409.1 6.3,-321.9 -235.1,-671.5 -625.4,-858.5 -170.1,-81.4 -349.6,-123.2 -522.1,-123.2"
         style="fill:#c31f03;fill-opacity:1;fill-rule:nonzero;stroke:none"
         id="path190" /><path
         d="m 24412.9,26463 c -192.7,0 -374.1,43.7 -525.6,126.8 -4.7,2.5 -9.4,5 -14,7.7 -142.4,81.4 -257.2,198 -328.2,346.7 -104.1,217.4 -96.8,464.8 -0.1,695.8 8.4,-23.2 18.1,-46.1 29,-68.8 28.4,-59.5 63.8,-113.9 105.2,-162.9 -25.9,-134 -11.5,-264.1 43.5,-379 82.4,-172 248.4,-294.4 467.5,-344.7 72.3,-16.6 147.4,-24.8 223.9,-24.8 172.5,0 352,41.8 522.1,123.2 390.3,187 631.7,536.6 625.4,858.5 62.5,81.6 113,168.2 150.2,257.3 166.9,-459.1 -128.6,-1024.3 -690.5,-1293.5 -114.5,-54.7 -231.7,-93.2 -347.9,-116.3 -88,-17.5 -175.3,-26 -260.5,-26"
         style="fill:#650001;fill-opacity:1;fill-rule:nonzero;stroke:none"
         id="path192" /><path
         d="m 21536.8,27837.4 c -42.2,0 -81,11.7 -111.7,36.5 -55.8,45 -64.2,117 -64.2,155.9 0,17.2 1.5,34.8 4.4,52.5 27.4,-10.5 56,-17.6 85.4,-21.5 17.9,-2.4 36.2,-3.6 54.6,-3.6 136.9,0 284,65.5 396.6,186.7 0.3,-5.5 0.4,-10.6 0.4,-15.2 0.1,-81.5 -33.7,-170.1 -92.8,-243.1 -76.3,-94.4 -182.4,-148.2 -272.7,-148.2"
         style="fill:#c31f03;fill-opacity:1;fill-rule:nonzero;stroke:none"
         id="path194" /><path
         d="m 21536.5,27640.8 c -59.4,0 -116.9,12.3 -168.8,37.6 -23.4,11.3 -45.5,25.5 -66.4,42.2 -137.1,110.9 -171.7,308.8 -103.4,496 19.4,-29.8 43.5,-56.4 72,-79.5 29.2,-23.6 61.3,-41.8 95.4,-54.8 -2.9,-17.7 -4.4,-35.3 -4.4,-52.5 0,-38.9 8.4,-110.9 64.2,-155.9 30.7,-24.8 69.5,-36.5 111.7,-36.5 90.3,0 196.4,53.8 272.7,148.2 59.1,73 92.9,161.6 92.8,243.1 0,4.6 -0.1,9.7 -0.4,15.2 10.1,10.9 19.9,22.3 29.4,34.1 22.1,27.2 41.6,55.7 58.2,85 18,31.1 32.8,63.2 44.6,95.5 25.4,-38.5 43.4,-82 54,-128.3 33.6,-147.1 -8.2,-323.7 -125.3,-468.7 -115.6,-143.1 -277,-220.7 -426.3,-220.7"
         style="fill:#650001;fill-opacity:1;fill-rule:nonzero;stroke:none"
         id="path196" /><path
         d="m 17968.8,15047.9 c -310.6,0 -599.9,54.2 -833,158 -254.2,113.2 -408.9,275.1 -424.5,444.2 -8.6,93.4 25,192.5 95.5,289.1 265,-197.7 685.6,-318.2 1164.5,-318.2 88.1,0 178.2,4.1 269.7,12.5 533.4,49.1 994.2,235.3 1273.7,483.9 50.3,-63.9 80,-131.9 86.4,-201.2 15.5,-169 -107,-356.4 -336.2,-514.1 -266.7,-183.5 -636.7,-305.1 -1042,-342.4 -85.8,-7.9 -170.7,-11.8 -254.1,-11.8"
         style="fill:#c31f03;fill-opacity:1;fill-rule:nonzero;stroke:none"
         id="path198" /><path
         d="m 17971.8,14851.1 c -785.4,0 -1414.6,324.1 -1456.8,780.8 -14.1,153.3 39.5,304 146.1,441.9 41.1,-48 90,-93 145.7,-134.6 -70.5,-96.6 -104.1,-195.7 -95.5,-289.1 15.6,-169.1 170.3,-331 424.5,-444.2 233.1,-103.8 522.4,-158 833,-158 83.4,0 168.3,3.9 254.1,11.8 405.3,37.3 775.3,158.9 1042,342.4 229.2,157.7 351.7,345.1 336.2,514.1 -6.4,69.3 -36.1,137.3 -86.4,201.2 52.1,46.4 97.8,94.8 136.6,145 83.8,-97.8 135.1,-208.5 146.1,-328.1 46.7,-507.9 -650.2,-987.4 -1556.4,-1070.8 -91.3,-8.4 -181.2,-12.4 -269.2,-12.4"
         style="fill:#650001;fill-opacity:1;fill-rule:nonzero;stroke:none"
         id="path200" /><path
         d="m 21562.4,17963.7 c -76.8,0 -148.7,9 -210.8,27 -84.7,24.6 -145.1,65.2 -154,103.5 -8,34.4 19.2,89.8 79.6,148.4 8.6,-2.5 17.3,-4.9 26.2,-7.2 73.2,-18.9 155.7,-28.8 243.8,-28.8 64.4,0 131.9,5.3 201,16.2 31.6,5.1 63.7,11.2 95.9,18.8 163,37.9 307.3,102 419.3,179.9 35.2,-20.5 56.6,-43.6 61.6,-65.3 19,-81.6 -160.2,-281.2 -510,-362.6 -85.6,-19.9 -171.8,-29.9 -252.6,-29.9"
         style="fill:#c31f03;fill-opacity:1;fill-rule:nonzero;stroke:none"
         id="path202" /><path
         d="m 21562.7,17766.5 c -288.4,0 -516,106.5 -557,283.1 -14.4,61.6 -4.4,125.8 25.6,188.3 15.6,32.6 36.6,64.6 62.2,95.8 48.5,-38.9 110.9,-69.6 183.7,-91.1 -60.4,-58.6 -87.6,-114 -79.6,-148.4 8.9,-38.3 69.3,-78.9 154,-103.5 62.1,-18 134,-27 210.8,-27 80.8,0 167,10 252.6,29.9 349.8,81.4 529,281 510,362.6 -5,21.7 -26.4,44.8 -61.6,65.3 59.9,41.7 110.7,87.4 150.1,135.1 53.1,-42.6 89.4,-95.1 103.5,-155.8 16.8,-72.1 0.4,-147.3 -42.6,-219.9 -96.3,-162.9 -326,-312.1 -614.7,-379.2 -102.5,-23.9 -203,-35.2 -297,-35.2"
         style="fill:#650001;fill-opacity:1;fill-rule:nonzero;stroke:none"
         id="path204" /><path
         d="m 26963.2,19273.3 c -252.7,0 -492.7,44.3 -679,127.3 -198.5,88.3 -319,211.8 -330.7,338.8 -4.4,48.3 6.7,99 31.9,150.1 217.3,-172.9 574.6,-279.1 983.1,-279.1 72.8,0 147.2,3.4 222.7,10.4 446.9,41.2 832.2,198.8 1062,408.5 10.9,-25.1 17.6,-50.5 20,-76.1 11.7,-127 -84.2,-270.4 -263.1,-393.5 -212.5,-146.2 -520.4,-247.1 -844.9,-277 -67.7,-6.3 -135.3,-9.4 -202,-9.4"
         style="fill:#c31f03;fill-opacity:1;fill-rule:nonzero;stroke:none"
         id="path206" /><path
         d="m 26960.8,19076.2 c -648.8,0 -1168.7,267.8 -1203.5,645.4 -10,109.3 21.5,216.9 87.2,317.5 36.2,-54 83.7,-104.1 140.9,-149.6 -25.2,-51.1 -36.3,-101.8 -31.9,-150.1 11.7,-127 132.2,-250.5 330.7,-338.8 186.3,-83 426.3,-127.3 679,-127.3 66.7,0 134.3,3.1 202,9.4 324.5,29.9 632.4,130.8 844.9,277 178.9,123.1 274.8,266.5 263.1,393.5 -2.4,25.6 -9.1,51 -20,76.1 54.9,50.1 101,103.3 136.9,158.5 44.7,-66.7 72.2,-139.3 79.3,-216.5 38.7,-419.7 -537.1,-815.8 -1286.1,-884.8 -75.5,-6.9 -149.7,-10.3 -222.5,-10.3"
         style="fill:#650001;fill-opacity:1;fill-rule:nonzero;stroke:none"
         id="path208" /><path
         d="m 23939.7,20424.9 c -171,0 -332.3,26.9 -461.3,78.7 -145.1,58.2 -234.6,140.1 -245.6,224.8 -7.1,54.5 17.6,116.2 69.4,178.1 160.2,-81.9 374.5,-128.9 612.8,-128.9 79.1,0 160.8,5.1 244,15.9 302.2,39.4 565.9,145.3 745.4,283.7 41.7,-38.3 66.8,-79.9 72.3,-122.1 11,-84.7 -54.6,-186.8 -179.9,-280.2 -158,-117.6 -391.1,-203.5 -639.7,-235.8 -73.1,-9.5 -146.1,-14.2 -217.4,-14.2"
         style="fill:#c31f03;fill-opacity:1;fill-rule:nonzero;stroke:none"
         id="path210" /><path
         d="m 23938.5,20227.5 c -480.8,0 -864.1,191.6 -901.2,475.5 -14,108.4 24.3,216.5 102.8,316 44.4,-42.4 99.1,-80.2 162.1,-112.5 -51.8,-61.9 -76.5,-123.6 -69.4,-178.1 11,-84.7 100.5,-166.6 245.6,-224.8 129,-51.8 290.3,-78.7 461.3,-78.7 71.3,0 144.3,4.7 217.4,14.2 248.6,32.3 481.7,118.2 639.7,235.8 125.3,93.4 190.9,195.5 179.9,280.2 -5.5,42.2 -30.6,83.8 -72.3,122.1 55.7,42.9 103.3,89 141.4,137.2 70.4,-67.1 114.9,-146.2 126.4,-233.9 42.7,-330.4 -400.4,-660.3 -989.6,-737 -83.3,-10.8 -165,-16 -244.1,-16"
         style="fill:#650001;fill-opacity:1;fill-rule:nonzero;stroke:none"
         id="path212" /><path
         d="m 26889.7,21377 c -165.1,0 -275,49.1 -291.9,99.4 -11.2,33.5 10.6,91 65,155 46.1,-7.7 95.5,-11.6 147.3,-11.6 122.4,0 258.3,21.9 395.9,67.9 160.9,53.9 300,132.7 404.6,222.5 45.4,-17.9 76.5,-41.5 84.7,-66.2 26.6,-79.5 -132.9,-295.3 -473.2,-409.3 -124.3,-41.5 -237.5,-57.8 -332.4,-57.7"
         style="fill:#c31f03;fill-opacity:1;fill-rule:nonzero;stroke:none"
         id="path214" /><path
         d="m 26888.5,21179.9 c -239.1,0 -427.1,83.5 -477.6,234 -29.8,89.2 -7.1,188.4 56,284.4 54,-31.9 120.6,-54.4 195.9,-66.9 -54.4,-64 -76.2,-121.5 -65,-155 16.9,-50.3 126.8,-99.4 291.9,-99.4 94.9,-0.1 208.1,16.2 332.4,57.7 340.3,114 499.8,329.8 473.2,409.3 -8.2,24.7 -39.3,48.3 -84.7,66.2 56.4,48.2 102.7,99.7 137,152.1 65.8,-38.7 113.1,-91.2 134.7,-156 76.1,-227.7 -191.5,-522.4 -597.7,-658.5 -137.7,-46 -273.6,-67.9 -396.1,-67.9"
         style="fill:#650001;fill-opacity:1;fill-rule:nonzero;stroke:none"
         id="path216" /><path
         d="m 15836,19273.3 c -252.6,0 -492.7,44.3 -679.2,127.3 -198.4,88.3 -318.9,211.8 -330.6,338.9 -6.2,67.9 18.3,140.7 69.6,212.5 220.2,-149 552.8,-238.9 928.8,-238.9 72.6,0 146.9,3.4 222.2,10.3 427.9,39.5 799.3,185.7 1031.9,382.1 39.2,-48.7 62.3,-100.2 67.1,-152.3 11.7,-127 -84.2,-270.4 -263.1,-393.5 -212.4,-146.2 -520.3,-247.1 -844.8,-277 -67.6,-6.3 -135.2,-9.4 -201.9,-9.4"
         style="fill:#c31f03;fill-opacity:1;fill-rule:nonzero;stroke:none"
         id="path218" /><path
         d="m 15833.5,19076.2 c -648.8,0 -1168.7,267.8 -1203.5,645.4 -11.4,124.4 31.3,247.2 116.8,359.7 41,-46.8 91.1,-90.1 149,-129.3 -51.3,-71.8 -75.8,-144.6 -69.6,-212.5 11.7,-127.1 132.2,-250.6 330.6,-338.9 186.5,-83 426.6,-127.3 679.2,-127.3 66.7,0 134.3,3.1 201.9,9.4 324.5,29.9 632.4,130.8 844.8,277 178.9,123.1 274.8,266.5 263.1,393.5 -4.8,52.1 -27.9,103.6 -67.1,152.3 53.5,45.2 99.6,93 137.4,142.8 72.3,-82.3 116.6,-175.7 125.9,-277 38.7,-419.7 -537.1,-815.8 -1285.9,-884.8 -75.5,-6.9 -149.8,-10.3 -222.6,-10.3"
         style="fill:#650001;fill-opacity:1;fill-rule:nonzero;stroke:none"
         id="path220" /><path
         d="m 12151.6,20438.4 c -250.4,0 -434,75.8 -472.4,190.7 -9.9,29.4 -10.3,63 -1.7,99.5 82.3,-19.5 173.8,-29.6 271.5,-29.6 170,0 358.6,30.4 549.6,94.3 336.1,112.5 603.8,303.4 742.8,506.2 54.3,-30.7 90.8,-69 105.3,-112.4 60.9,-181.7 -227.7,-504.4 -704.8,-664.2 -175.7,-58.8 -344.3,-84.5 -490.3,-84.5"
         style="fill:#c31f03;fill-opacity:1;fill-rule:nonzero;stroke:none"
         id="path222" /><path
         d="m 12154.8,20241.7 c -331.6,0 -592.5,115.8 -662.5,324.8 -24.5,73.1 -23.4,151.2 -0.3,230.5 54.2,-29.2 116.7,-52.1 185.5,-68.4 -8.6,-36.5 -8.2,-70.1 1.7,-99.5 38.4,-114.9 222,-190.7 472.4,-190.7 146,0 314.6,25.7 490.3,84.5 477.1,159.8 765.7,482.5 704.8,664.2 -14.5,43.4 -51,81.7 -105.3,112.4 40.1,58.5 69.5,118.1 86.7,177 101,-54.5 173.4,-131.1 205.6,-226.8 61.1,-182.8 -37.5,-396.8 -240.7,-581.3 -147.9,-134.2 -351.1,-252.9 -588.5,-332.4 -191.1,-63.9 -379.7,-94.3 -549.7,-94.3"
         style="fill:#650001;fill-opacity:1;fill-rule:nonzero;stroke:none"
         id="path224" /><path
         d="m 20412.6,16582.9 c -208.3,0 -377.3,168.9 -377.3,377.3 0,208.3 169,377.1 377.3,377.1 208.3,0 377.3,-168.8 377.3,-377.1 0,-208.4 -169,-377.3 -377.3,-377.3"
         style="fill:#d08402;fill-opacity:1;fill-rule:nonzero;stroke:none"
         id="path226" /><path
         d="m 14504.2,22145.7 c -208.4,0 -377.3,168.8 -377.3,377.1 0,208.5 168.9,377.3 377.3,377.3 208.2,0 377.2,-168.8 377.2,-377.3 0,-208.3 -169,-377.1 -377.2,-377.1"
         style="fill:#d08402;fill-opacity:1;fill-rule:nonzero;stroke:none"
         id="path228" /><path
         d="m 26855.8,22711.3 c -208.3,0 -377.3,168.9 -377.3,377.4 0,208.2 169,377.3 377.3,377.3 208.3,0 377.2,-169.1 377.2,-377.3 0,-208.5 -168.9,-377.4 -377.2,-377.4"
         style="fill:#d08402;fill-opacity:1;fill-rule:nonzero;stroke:none"
         id="path230" /><path
         d="m 15415.3,15419.8 c -104.4,0 -188.9,84.5 -188.9,189 0,104.2 84.5,188.8 188.9,188.8 104.2,0 188.9,-84.6 188.9,-188.8 0,-104.5 -84.7,-189 -188.9,-189"
         style="fill:#d08402;fill-opacity:1;fill-rule:nonzero;stroke:none"
         id="path232" /><path
         d="m 24742.3,19175.2 c -104.4,0 -188.9,84.5 -188.9,188.8 0,104.4 84.5,189 188.9,189 104.2,0 188.8,-84.6 188.8,-189 0,-104.3 -84.6,-188.8 -188.8,-188.8"
         style="fill:#d08402;fill-opacity:1;fill-rule:nonzero;stroke:none"
         id="path234" /><path
         d="m 20844.9,19206.6 c -104.2,0 -188.7,84.5 -188.7,189 0,104.2 84.5,188.7 188.7,188.7 104.4,0 188.9,-84.5 188.9,-188.7 0,-104.5 -84.5,-189 -188.9,-189"
         style="fill:#d08402;fill-opacity:1;fill-rule:nonzero;stroke:none"
         id="path236" /><path
         d="m 14181.9,20652.4 c -104.2,0 -188.7,84.6 -188.7,188.8 0,104.2 84.5,188.8 188.7,188.8 104.4,0 188.9,-84.6 188.9,-188.8 0,-104.2 -84.5,-188.8 -188.9,-188.8"
         style="fill:#d08402;fill-opacity:1;fill-rule:nonzero;stroke:none"
         id="path238" /><path
         d="m 25402.4,16692.2 c -104.3,0 -188.9,84.5 -188.9,189 0,104.2 84.6,188.8 188.9,188.8 104.3,0 188.9,-84.6 188.9,-188.8 0,-104.5 -84.6,-189 -188.9,-189"
         style="fill:#d08402;fill-opacity:1;fill-rule:nonzero;stroke:none"
         id="path240" /><path
         d="m 18802.3,17540.8 c -104.2,0 -188.8,84.5 -188.8,189 0,104.2 84.6,188.8 188.8,188.8 104.4,0 188.9,-84.6 188.9,-188.8 0,-104.5 -84.5,-189 -188.9,-189"
         style="fill:#d08402;fill-opacity:1;fill-rule:nonzero;stroke:none"
         id="path242" /><path
         d="m 21001.9,15105.2 c -78.3,0 -141.6,63.5 -141.6,141.6 0,78.3 63.3,141.6 141.6,141.6 78.2,0 141.7,-63.3 141.7,-141.6 0,-78.1 -63.5,-141.6 -141.7,-141.6"
         style="fill:#d08402;fill-opacity:1;fill-rule:nonzero;stroke:none"
         id="path244" /><path
         d="m 23634.4,21964.5 c -78.2,0 -141.6,63.4 -141.6,141.8 0,78.1 63.4,141.6 141.6,141.6 78.2,0 141.5,-63.5 141.5,-141.6 0,-78.4 -63.3,-141.8 -141.5,-141.8"
         style="fill:#d08402;fill-opacity:1;fill-rule:nonzero;stroke:none"
         id="path246" /><path
         d="m 16028.5,23661.6 c -78.3,0 -141.6,63.5 -141.6,141.9 0,78.1 63.3,141.5 141.6,141.5 78.2,0 141.7,-63.4 141.7,-141.5 0,-78.4 -63.5,-141.9 -141.7,-141.9"
         style="fill:#d08402;fill-opacity:1;fill-rule:nonzero;stroke:none"
         id="path248" /><path
         d="m 18041.1,15983.1 c -243,0 -423.4,46.8 -429.7,119.9 -7.8,90.2 251.7,186.2 579.7,214.6 61.7,5.3 121.6,7.9 178,7.9 243,0 423.3,-46.9 429.5,-120.1 7.8,-90.1 -251.5,-186.1 -579.5,-214.5 -61.8,-5.3 -121.6,-7.8 -178,-7.8"
         style="fill:#f59682;fill-opacity:1;fill-rule:nonzero;stroke:none"
         id="path250" /><path
         d="m 15862,20049 c -192.3,0 -335,37 -339.9,94.8 -6.2,71.5 199,147.3 458.4,169.8 49.2,4.2 96.8,6.3 141.6,6.3 191.9,0 334.2,-37.1 339.1,-95 6.2,-71.2 -199,-147.3 -458.4,-169.7 -48.9,-4.2 -96.2,-6.2 -140.8,-6.2"
         style="fill:#f59682;fill-opacity:1;fill-rule:nonzero;stroke:none"
         id="path252" /><path
         d="m 12225,20988.8 c -39.3,0 -65.5,8.2 -71.9,25.3 -15.4,42 96,121.9 249,178.3 90.9,33.5 176,51.1 233.4,51.1 39.1,0 65.3,-8.2 71.6,-25.2 15.5,-42.2 -95.9,-122.1 -248.9,-178.3 -90.8,-33.6 -175.9,-51.2 -233.2,-51.2"
         style="fill:#f59682;fill-opacity:1;fill-rule:nonzero;stroke:none"
         id="path254" /><path
         d="m 26946.1,19965.9 c -242.5,0 -422.3,46.8 -428.6,119.9 -7.8,90.3 251.6,186.3 579.5,214.7 61.8,5.3 121.7,7.8 178.1,7.8 243,0 423.3,-46.8 429.7,-120.1 7.7,-90 -251.8,-186.2 -579.7,-214.4 -62.1,-5.4 -122.3,-7.9 -179,-7.9"
         style="fill:#f59682;fill-opacity:1;fill-rule:nonzero;stroke:none"
         id="path256" /><path
         d="m 23993.2,20989.9 c -90.8,0 -154.7,16.8 -159.4,46.7 -6.9,44.4 118.1,100.6 279.3,125.8 52,8.1 101.4,11.9 144.7,11.9 90.7,0 154.7,-16.9 159.4,-47 6.9,-44.2 -118.1,-100.5 -279.2,-125.5 -52,-8.1 -101.5,-11.9 -144.8,-11.9"
         style="fill:#f59682;fill-opacity:1;fill-rule:nonzero;stroke:none"
         id="path258" /><path
         d="m 24164,27549.2 c -94.7,0 -158,19.2 -170.4,58.2 -27.5,86.2 204.3,237.1 518,337 171.8,54.8 332.4,82.8 447.1,82.8 94.7,0 158,-19.1 170.4,-58 27.4,-86.4 -204.5,-237.1 -518,-337 -171.8,-54.9 -332.4,-83 -447.1,-83"
         style="fill:#f59682;fill-opacity:1;fill-rule:nonzero;stroke:none"
         id="path260" /><path
         d="m 20721.6,26153.5 c -49.3,0 -100.9,1.9 -154,5.8 -328.2,24 -588.9,116.6 -582.2,206.8 5.5,75.9 197.1,125.9 452.2,125.9 49.3,0 100.8,-1.9 153.9,-5.8 328.3,-24.1 589,-116.6 582.3,-207.1 -5.5,-75.6 -197.1,-125.6 -452.2,-125.6"
         style="fill:#f59682;fill-opacity:1;fill-rule:nonzero;stroke:none"
         id="path262" /><path
         d="m 19900,4100 c -4596.9,0 -8323.4,674.4 -8323.4,1506.4 0,831.9 3726.5,1506.4 8323.4,1506.4 4596.9,0 8323.4,-674.5 8323.4,-1506.4 0,-832 -3726.5,-1506.4 -8323.4,-1506.4"
         style="fill:#ddb574;fill-opacity:1;fill-rule:nonzero;stroke:none"
         id="path264" /></g></g></svg>
